<svg width="41" height="40" viewBox="0 0 41 40" fill="none" xmlns="http://www.w3.org/2000/svg">
<path fill-rule="evenodd" clip-rule="evenodd" d="M34.8106 34.7214C34.7457 34.4439 34.9563 34.1784 35.2412 34.1784H37.5535C37.8425 34.1784 38.0539 34.4511 37.9817 34.731L36.9949 38.5597C36.8236 39.2358 35.8588 39.2235 35.7048 38.5433L34.8106 34.7214Z" fill="#FF0000"/>
<path fill-rule="evenodd" clip-rule="evenodd" d="M15.2824 17.3625C14.1937 17.4435 13.0527 17.1069 12.0725 16.1468C11.9721 16.0485 11.9193 15.9121 11.9193 15.7716V15.1683C11.9193 15.0588 12.0654 15.0137 12.1318 15.1008C13.0678 16.3295 14.195 16.7042 15.2278 16.6275C16.232 16.5528 17.1745 16.0486 17.7929 15.4131C17.8199 15.3854 17.8463 15.3573 17.8721 15.329C17.9063 15.2916 17.944 15.256 17.9914 15.238C18.0282 15.2241 18.067 15.2157 18.1063 15.2133C18.236 15.2053 18.3701 15.2627 18.4481 15.4015L22.516 22.643C23.7232 24.7921 26.814 24.801 28.0336 22.6589L32.1981 15.3447C32.298 15.1693 32.4677 15.1189 32.6424 15.1799C32.7273 15.2096 32.7516 15.24 32.8256 15.3194C33.4402 15.9985 34.4255 16.5492 35.4786 16.6275C36.484 16.7022 37.5789 16.349 38.4997 15.1969C38.5908 15.0828 38.7871 15.1444 38.7871 15.2904V15.7716C38.7871 15.9121 38.7343 16.0485 38.6339 16.1468C37.6537 17.1069 36.5127 17.4435 35.424 17.3625C34.5823 17.3 33.7848 16.9891 33.1295 16.5466C33.0282 16.4782 32.8869 16.5487 32.8869 16.6709V25.5561C32.8869 26.1641 32.9547 26.7701 33.089 27.363L34.4312 33.0998C34.478 33.2998 34.6564 33.4413 34.8618 33.4413H37.9714C38.1732 33.4413 38.3493 33.3048 38.3997 33.1094L39.8558 27.46C40.0223 26.8031 40.1065 26.1281 40.1065 25.4505V4.28216C40.1065 -0.106947 34.2836 -1.64612 32.1147 2.16966L25.2607 14.228L18.5304 2.2936C16.3707 -1.53619 10.5316 -0.00324158 10.5316 4.39355V22.449C10.5316 23.0761 10.0105 23.5753 9.38532 23.6231C6.25897 23.8618 1.35418 25.509 0.16397 30.8793C-0.905668 35.1991 3.24951 41.9873 12.8766 37.6675C17.7313 34.5408 17.7366 32.1788 17.7366 30.3033C17.7643 28.6951 17.794 21.5814 17.7616 16.6332C17.761 16.5427 17.6573 16.4922 17.5824 16.5429C16.926 16.9873 16.1264 17.2998 15.2824 17.3625Z" fill="#FF0000"/>
</svg>
