<svg width="122" height="41" viewBox="0 0 122 41" fill="none" xmlns="http://www.w3.org/2000/svg">
<path fill-rule="evenodd" clip-rule="evenodd" d="M34.8106 35.1901C34.7457 34.9126 34.9563 34.6471 35.2412 34.6471H37.5535C37.8425 34.6471 38.0539 34.9198 37.9817 35.1997L36.9949 39.0285C36.8236 39.7046 35.8588 39.6923 35.7048 39.0121L34.8106 35.1901Z" fill="#FF0000"/>
<path fill-rule="evenodd" clip-rule="evenodd" d="M15.2824 17.8313C14.1937 17.9122 13.0527 17.5756 12.0725 16.6155C11.9721 16.5172 11.9193 16.3808 11.9193 16.2403V15.6371C11.9193 15.5276 12.0654 15.4825 12.1318 15.5696C13.0678 16.7982 14.195 17.173 15.2278 17.0962C16.232 17.0216 17.1745 16.5174 17.7929 15.8819C17.8199 15.8541 17.8463 15.8261 17.8721 15.7978C17.9063 15.7603 17.944 15.7247 17.9914 15.7068C18.0282 15.6929 18.067 15.6845 18.1063 15.6821C18.236 15.6741 18.3701 15.7314 18.4481 15.8703L22.516 23.1117C23.7232 25.2608 26.814 25.2697 28.0336 23.1277L32.1981 15.8135C32.298 15.6381 32.4677 15.5877 32.6424 15.6487C32.7273 15.6783 32.7516 15.7088 32.8256 15.7882C33.4402 16.4673 34.4255 17.0179 35.4786 17.0962C36.484 17.1709 37.5789 16.8178 38.4997 15.6656C38.5908 15.5516 38.7871 15.6132 38.7871 15.7591V16.2403C38.7871 16.3808 38.7343 16.5172 38.6339 16.6155C37.6537 17.5756 36.5127 17.9122 35.424 17.8313C34.5823 17.7687 33.7848 17.4578 33.1295 17.0154C33.0282 16.947 32.8869 17.0174 32.8869 17.1397V26.0249C32.8869 26.6328 32.9547 27.2389 33.089 27.8318L34.4312 33.5685C34.478 33.7686 34.6564 33.91 34.8618 33.91H37.9714C38.1732 33.91 38.3493 33.7735 38.3997 33.5782L39.8558 27.9288C40.0223 27.2719 40.1065 26.5969 40.1065 25.9192V4.75091C40.1065 0.361803 34.2836 -1.17737 32.1147 2.63841L25.2607 14.6968L18.5304 2.76235C16.3707 -1.06744 10.5316 0.465508 10.5316 4.8623V22.9178C10.5316 23.5448 10.0105 24.0441 9.38532 24.0918C6.25897 24.3305 1.35418 25.9777 0.16397 31.348C-0.905668 35.6678 3.24951 42.4561 12.8766 38.1363C17.7313 35.0096 17.7366 32.6476 17.7366 30.7721C17.7643 29.1638 17.794 22.0502 17.7616 17.1019C17.761 17.0114 17.6573 16.9609 17.5824 17.0117C16.926 17.4561 16.1264 17.7685 15.2824 17.8313Z" fill="#FF0000"/>
<mask id="path-2-outside-1_3200_2323" maskUnits="userSpaceOnUse" x="51.9092" y="0" width="65" height="41" fill="black">
<rect fill="white" x="51.9092" width="65" height="41"/>
<path d="M52.7921 17V1.84445H56.627L61.3803 14.2674H61.4951L66.2255 1.84445H69.8995V17H67.5114L67.6721 4.37037H67.4655L62.4595 17H60.1633L55.2033 4.37037H54.9966L55.1573 17H52.7921ZM75.7603 17.2985C75.102 17.2985 74.5127 17.176 73.9922 16.9311C73.4717 16.6709 73.0583 16.2881 72.7522 15.783C72.4613 15.2778 72.3159 14.6501 72.3159 13.9C72.3159 13.303 72.423 12.7901 72.6373 12.3615C72.867 11.9175 73.2038 11.5501 73.6477 11.2593C74.107 10.9531 74.6887 10.7081 75.3929 10.5244C76.0971 10.3254 76.9314 10.157 77.8959 10.0193C78.4317 9.94272 78.868 9.86617 79.2048 9.78963C79.5569 9.71309 79.8094 9.59062 79.9625 9.42222C80.1309 9.25383 80.2151 9.00123 80.2151 8.66444C80.2151 8.14395 80.0314 7.7 79.664 7.33259C79.3119 6.94988 78.7378 6.75852 77.9418 6.75852C77.4978 6.75852 77.0539 6.83506 76.6099 6.98815C76.1813 7.14123 75.8062 7.39383 75.4848 7.74593C75.1786 8.08272 74.9719 8.54198 74.8648 9.1237L72.6144 8.41185C72.7522 7.83012 72.9741 7.31728 73.2803 6.87333C73.5865 6.41407 73.9692 6.03136 74.4285 5.72519C74.8877 5.4037 75.4159 5.16642 76.0129 5.01333C76.6252 4.84494 77.2912 4.76074 78.0107 4.76074C79.067 4.76074 79.9396 4.93679 80.6285 5.28889C81.3173 5.64099 81.8302 6.18444 82.167 6.91926C82.5191 7.63877 82.6951 8.56494 82.6951 9.69778V12.1319C82.6951 12.637 82.7028 13.1728 82.7181 13.7393C82.7487 14.2904 82.7793 14.8491 82.8099 15.4156C82.8559 15.9667 82.9094 16.4948 82.9707 17H80.6973C80.6514 16.5407 80.6055 16.0662 80.5596 15.5763C80.5289 15.0864 80.4983 14.5889 80.4677 14.0837H80.1233C79.9089 14.6654 79.6028 15.2012 79.2048 15.6911C78.822 16.181 78.3398 16.5714 77.7581 16.8622C77.1917 17.1531 76.5257 17.2985 75.7603 17.2985ZM76.6329 15.3696C76.9544 15.3696 77.2759 15.316 77.5973 15.2089C77.9341 15.1017 78.2633 14.941 78.5848 14.7267C78.9215 14.497 79.2277 14.2062 79.5033 13.8541C79.7941 13.502 80.0467 13.081 80.261 12.5911L80.2381 10.4326L80.8351 10.5474C80.5749 10.777 80.2457 10.9531 79.8477 11.0756C79.465 11.198 79.044 11.2975 78.5848 11.3741C78.1255 11.4353 77.6662 11.5119 77.207 11.6037C76.763 11.6802 76.3497 11.7951 75.967 11.9481C75.5996 12.0859 75.301 12.2849 75.0714 12.5452C74.8571 12.8054 74.7499 13.1652 74.7499 13.6244C74.7499 14.1909 74.926 14.6272 75.2781 14.9333C75.6302 15.2242 76.0818 15.3696 76.6329 15.3696ZM89.8673 17.2985C88.8569 17.2985 87.9843 17.0383 87.2495 16.5178C86.5147 15.982 85.9559 15.2472 85.5732 14.3133C85.1905 13.3642 84.9991 12.2696 84.9991 11.0296C84.9991 9.82025 85.1752 8.74864 85.5273 7.81482C85.8947 6.86568 86.4305 6.12321 87.1347 5.58741C87.8542 5.05161 88.7344 4.7837 89.7754 4.7837C90.6021 4.7837 91.2833 4.9521 91.8191 5.28889C92.3549 5.61037 92.7836 6.05432 93.1051 6.62074C93.4418 7.18716 93.6944 7.81482 93.8628 8.5037H94.3221C94.2455 8.05975 94.169 7.60049 94.0925 7.12593C94.0159 6.63605 93.9547 6.16914 93.9088 5.72519C93.8628 5.26593 93.8399 4.86025 93.8399 4.50815V0.811111H96.3658V11.1215V17H94.1843L94.2762 13.6933H93.8628C93.6791 14.4435 93.4189 15.0864 93.0821 15.6222C92.7453 16.158 92.309 16.5714 91.7732 16.8622C91.2527 17.1531 90.6174 17.2985 89.8673 17.2985ZM90.5562 15.1859C91.092 15.1859 91.5665 15.0635 91.9799 14.8185C92.3932 14.5736 92.7376 14.2521 93.0132 13.8541C93.2888 13.456 93.4954 13.0274 93.6332 12.5681C93.7863 12.0936 93.8628 11.6496 93.8628 11.2363V10.9148C93.8628 10.6086 93.8169 10.2795 93.7251 9.92741C93.6485 9.56 93.5184 9.20025 93.3347 8.84815C93.1663 8.48074 92.952 8.15161 92.6917 7.86074C92.4315 7.56988 92.1176 7.34025 91.7502 7.17185C91.3981 6.98815 91.0001 6.8963 90.5562 6.8963C89.9132 6.8963 89.3697 7.08 88.9258 7.44741C88.4972 7.79951 88.168 8.28938 87.9384 8.91704C87.7088 9.54469 87.5939 10.2642 87.5939 11.0756C87.5939 11.9022 87.7088 12.6294 87.9384 13.257C88.1833 13.8694 88.5278 14.344 88.9717 14.6807C89.4157 15.0175 89.9438 15.1859 90.5562 15.1859ZM104.591 17.2985C103.642 17.2985 102.8 17.1607 102.065 16.8852C101.33 16.5943 100.71 16.1886 100.205 15.6681C99.6997 15.1323 99.317 14.497 99.0568 13.7622C98.7965 13.0121 98.6664 12.1701 98.6664 11.2363C98.6664 10.3025 98.7965 9.44519 99.0568 8.66444C99.317 7.8684 99.6844 7.17951 100.159 6.59778C100.649 6.01605 101.246 5.56444 101.95 5.24296C102.67 4.92148 103.481 4.76074 104.384 4.76074C105.226 4.76074 105.976 4.89852 106.635 5.17407C107.308 5.44963 107.875 5.87062 108.334 6.43704C108.793 6.98815 109.138 7.68469 109.367 8.52667C109.597 9.35333 109.681 10.3254 109.62 11.443L100.274 11.5119V9.95037L108.15 9.88148L107.278 10.8459C107.369 9.92741 107.293 9.16963 107.048 8.57259C106.803 7.97556 106.451 7.53161 105.992 7.24074C105.532 6.94988 105.004 6.80444 104.407 6.80444C103.734 6.80444 103.144 6.98049 102.639 7.33259C102.149 7.66938 101.766 8.16691 101.491 8.82519C101.215 9.48346 101.078 10.2719 101.078 11.1904C101.078 12.5681 101.384 13.6091 101.996 14.3133C102.608 15.0022 103.481 15.3467 104.614 15.3467C105.088 15.3467 105.494 15.2931 105.831 15.1859C106.168 15.0635 106.451 14.9104 106.68 14.7267C106.91 14.5277 107.094 14.298 107.232 14.0378C107.385 13.7622 107.507 13.479 107.599 13.1881L109.78 13.6933C109.643 14.2598 109.428 14.7649 109.138 15.2089C108.862 15.6375 108.51 16.0126 108.081 16.3341C107.653 16.6402 107.147 16.8775 106.566 17.0459C105.999 17.2143 105.341 17.2985 104.591 17.2985ZM58.2573 36.2985C57.2623 36.2985 56.3744 36.199 55.5936 36C54.8282 35.7857 54.1776 35.4795 53.6418 35.0815C53.1213 34.6681 52.7233 34.163 52.4477 33.5659C52.1875 32.9536 52.065 32.2494 52.0803 31.4533L54.3077 30.8563C54.2771 31.6217 54.4225 32.257 54.744 32.7622C55.0655 33.2674 55.54 33.6501 56.1677 33.9104C56.8107 34.1553 57.5455 34.2778 58.3721 34.2778C59.1835 34.2778 59.8647 34.1783 60.4158 33.9793C60.967 33.7802 61.3803 33.5123 61.6558 33.1756C61.9467 32.8235 62.0921 32.4254 62.0921 31.9815C62.0921 31.4763 61.9161 31.0783 61.564 30.7874C61.2272 30.4812 60.7756 30.244 60.2092 30.0756C59.6428 29.8919 59.0075 29.7235 58.3033 29.5704C57.5837 29.4173 56.8719 29.2412 56.1677 29.0422C55.4635 28.8432 54.8205 28.583 54.2388 28.2615C53.6724 27.9247 53.2131 27.496 52.861 26.9756C52.5242 26.4551 52.3558 25.7968 52.3558 25.0007C52.3558 24.0822 52.5855 23.2938 53.0447 22.6356C53.504 21.9773 54.1546 21.4644 54.9966 21.097C55.8539 20.7296 56.8642 20.5459 58.0277 20.5459C59.1912 20.5459 60.2092 20.7296 61.0818 21.097C61.9697 21.4491 62.6662 21.9696 63.1714 22.6585C63.6919 23.3321 63.9598 24.1511 63.9751 25.1156L61.6788 25.7126C61.6788 25.1921 61.587 24.7328 61.4033 24.3348C61.2349 23.9368 60.9899 23.6077 60.6684 23.3474C60.347 23.0872 59.9642 22.8958 59.5203 22.7733C59.0763 22.6356 58.5712 22.5667 58.0047 22.5667C57.3465 22.5667 56.7724 22.6662 56.2825 22.8652C55.7926 23.0489 55.4099 23.3091 55.1344 23.6459C54.8741 23.9674 54.744 24.3501 54.744 24.7941C54.744 25.3452 54.9354 25.7815 55.3181 26.103C55.7161 26.4091 56.2366 26.6617 56.8796 26.8607C57.5225 27.0444 58.2114 27.2205 58.9462 27.3889C59.6045 27.5267 60.2551 27.6951 60.8981 27.8941C61.5563 28.0778 62.1534 28.3304 62.6892 28.6519C63.2403 28.9733 63.6766 29.3943 63.9981 29.9148C64.3349 30.4353 64.5033 31.1012 64.5033 31.9126C64.5033 32.8005 64.266 33.5736 63.7914 34.2319C63.3321 34.8901 62.6433 35.403 61.7247 35.7704C60.8062 36.1225 59.6504 36.2985 58.2573 36.2985ZM72.0954 36.2985C70.9472 36.2985 69.9292 36.0536 69.0413 35.5637C68.1534 35.0738 67.4569 34.362 66.9517 33.4281C66.4618 32.4943 66.2169 31.3462 66.2169 29.9837C66.2169 28.5906 66.4771 27.4348 66.9976 26.5163C67.5181 25.5978 68.2146 24.9089 69.0872 24.4496C69.9751 23.9904 70.9702 23.7607 72.0724 23.7607C73.2053 23.7607 74.2156 23.998 75.1035 24.4726C75.9914 24.9472 76.688 25.6514 77.1932 26.5852C77.7137 27.519 77.9739 28.6825 77.9739 30.0756C77.9739 31.4533 77.7137 32.6091 77.1932 33.543C76.688 34.4615 75.9914 35.1504 75.1035 35.6096C74.2156 36.0689 73.2129 36.2985 72.0954 36.2985ZM72.1872 34.3237C72.8761 34.3237 73.4655 34.163 73.9554 33.8415C74.4453 33.52 74.8203 33.0454 75.0806 32.4178C75.3408 31.7901 75.4709 31.04 75.4709 30.1674C75.4709 29.2642 75.3332 28.4911 75.0576 27.8481C74.782 27.1899 74.384 26.6847 73.8635 26.3326C73.3583 25.9805 72.7383 25.8044 72.0035 25.8044C71.3453 25.8044 70.7635 25.9652 70.2583 26.2867C69.7685 26.5928 69.3934 27.0598 69.1332 27.6874C68.8729 28.2998 68.7428 29.0499 68.7428 29.9378C68.7428 31.3309 69.049 32.4101 69.6613 33.1756C70.2737 33.941 71.1156 34.3237 72.1872 34.3237ZM80.282 36V28.6519V24.0593H82.4406L82.3028 27.7793H82.6931C82.9075 26.8607 83.1907 26.1106 83.5428 25.5289C83.9102 24.9319 84.3694 24.4879 84.9206 24.197C85.487 23.9062 86.1452 23.7607 86.8954 23.7607C88.2272 23.7607 89.2376 24.2353 89.9265 25.1844C90.6307 26.1336 90.9828 27.5802 90.9828 29.5244V36H88.4569V29.777C88.4569 28.4452 88.2578 27.4731 87.8598 26.8607C87.4618 26.2331 86.8648 25.9193 86.0687 25.9193C85.3798 25.9193 84.7904 26.1412 84.3006 26.5852C83.826 27.0138 83.4586 27.5802 83.1983 28.2844C82.9381 28.9886 82.7927 29.7541 82.762 30.5807V36H80.282ZM98.3401 40.0874C97.0541 40.0874 95.9979 39.9879 95.1712 39.7889C94.3598 39.5899 93.7628 39.2914 93.3801 38.8933C92.9974 38.4953 92.806 38.0054 92.806 37.4237C92.806 36.7195 93.0816 36.1454 93.6327 35.7015C94.1838 35.2422 95.0181 34.9514 96.1356 34.8289V34.3696C95.309 34.3849 94.6813 34.3007 94.2527 34.117C93.8393 33.918 93.6327 33.6119 93.6327 33.1985C93.6327 32.7699 93.8393 32.4101 94.2527 32.1193C94.6813 31.8131 95.3702 31.5452 96.3193 31.3156V30.8793C95.3855 30.8486 94.666 30.5578 94.1608 30.0067C93.6556 29.4556 93.403 28.7514 93.403 27.8941C93.403 27.1133 93.6097 26.4321 94.023 25.8504C94.4517 25.2533 95.0717 24.7941 95.883 24.4726C96.7097 24.1358 97.7048 23.9674 98.8682 23.9674H104.632V25.9881L100.935 25.437V25.8963C101.853 26.0647 102.542 26.3556 103.002 26.7689C103.461 27.1822 103.69 27.741 103.69 28.4452C103.69 29.0728 103.491 29.6316 103.093 30.1215C102.711 30.6114 102.144 30.9941 101.394 31.2696C100.644 31.5299 99.7255 31.66 98.6386 31.66C98.4396 31.66 98.2253 31.6523 97.9956 31.637C97.766 31.6217 97.4292 31.5835 96.9853 31.5222C96.6179 31.7519 96.3193 31.9662 96.0897 32.1652C95.8754 32.3642 95.7682 32.5402 95.7682 32.6933C95.7682 32.8464 95.8601 32.9689 96.0438 33.0607C96.2428 33.1526 96.4877 33.2138 96.7786 33.2444C97.0695 33.2751 97.345 33.2904 97.6053 33.2904H100.545C100.851 33.2904 101.241 33.321 101.716 33.3822C102.19 33.4281 102.665 33.5506 103.139 33.7496C103.614 33.9486 104.012 34.2625 104.333 34.6911C104.655 35.1044 104.816 35.6862 104.816 36.4363C104.816 37.2936 104.571 37.9901 104.081 38.5259C103.591 39.0617 102.864 39.4521 101.899 39.697C100.935 39.9573 99.7485 40.0874 98.3401 40.0874ZM98.5008 38.0437C99.4806 38.0437 100.269 37.9825 100.866 37.86C101.463 37.7528 101.899 37.5691 102.175 37.3089C102.45 37.0486 102.588 36.7195 102.588 36.3215C102.588 35.9541 102.496 35.6709 102.313 35.4719C102.129 35.2575 101.899 35.1121 101.624 35.0356C101.364 34.9437 101.096 34.8901 100.82 34.8748C100.545 34.8595 100.307 34.8519 100.108 34.8519H97.3756C96.5643 34.9896 95.9979 35.2269 95.6764 35.5637C95.3549 35.8852 95.1941 36.2449 95.1941 36.643C95.1941 37.0257 95.3319 37.3165 95.6075 37.5156C95.883 37.7299 96.2658 37.8677 96.7556 37.9289C97.2608 38.0054 97.8425 38.0437 98.5008 38.0437ZM98.6616 30.1904C99.5495 30.1904 100.215 29.999 100.659 29.6163C101.119 29.2183 101.348 28.6978 101.348 28.0548C101.348 27.3659 101.119 26.8072 100.659 26.3785C100.2 25.9346 99.5188 25.7126 98.6156 25.7126C97.7277 25.7126 97.0465 25.9269 96.5719 26.3556C96.1127 26.7842 95.883 27.3277 95.883 27.9859C95.883 28.4299 95.9902 28.8202 96.2045 29.157C96.4188 29.4785 96.725 29.7311 97.123 29.9148C97.5364 30.0985 98.0492 30.1904 98.6616 30.1904ZM111.381 36.2985C110.554 36.2985 109.819 36.2143 109.176 36.0459C108.533 35.8775 107.982 35.6402 107.523 35.3341C107.079 35.0126 106.734 34.6299 106.489 34.1859C106.244 33.742 106.099 33.2598 106.053 32.7393L108.074 32.0733C108.074 32.5173 108.212 32.9153 108.487 33.2674C108.763 33.6195 109.153 33.8951 109.658 34.0941C110.179 34.2778 110.799 34.3696 111.518 34.3696C112.36 34.3696 113.011 34.2319 113.47 33.9563C113.929 33.6807 114.159 33.298 114.159 32.8081C114.159 32.4407 114.029 32.1499 113.769 31.9356C113.524 31.7212 113.164 31.5452 112.689 31.4074C112.23 31.2696 111.687 31.1395 111.059 31.017C110.493 30.8946 109.926 30.7568 109.36 30.6037C108.809 30.4353 108.296 30.221 107.821 29.9607C107.362 29.7005 106.987 29.3637 106.696 28.9504C106.421 28.5217 106.283 27.9859 106.283 27.343C106.283 26.6081 106.474 25.9805 106.857 25.46C107.24 24.9242 107.791 24.5109 108.51 24.22C109.245 23.9138 110.118 23.7607 111.128 23.7607C112.108 23.7607 112.95 23.9062 113.654 24.197C114.373 24.4879 114.947 24.8936 115.376 25.4141C115.805 25.9346 116.065 26.5469 116.157 27.2511L114.044 27.8711C114.014 27.3965 113.868 26.9985 113.608 26.677C113.363 26.3556 113.026 26.1183 112.598 25.9652C112.169 25.7968 111.664 25.7126 111.082 25.7126C110.317 25.7126 109.712 25.8504 109.268 26.1259C108.839 26.4015 108.625 26.7765 108.625 27.2511C108.625 27.6185 108.755 27.917 109.015 28.1467C109.291 28.361 109.658 28.537 110.118 28.6748C110.592 28.7973 111.128 28.9198 111.725 29.0422C112.337 29.1647 112.927 29.3025 113.493 29.4556C114.06 29.6086 114.565 29.8153 115.009 30.0756C115.468 30.3205 115.828 30.6573 116.088 31.0859C116.363 31.4993 116.501 32.0274 116.501 32.6704C116.501 33.4511 116.287 34.117 115.858 34.6681C115.445 35.204 114.856 35.6096 114.09 35.8852C113.325 36.1607 112.422 36.2985 111.381 36.2985Z"/>
</mask>
<path d="M52.7921 17V1.84445H56.627L61.3803 14.2674H61.4951L66.2255 1.84445H69.8995V17H67.5114L67.6721 4.37037H67.4655L62.4595 17H60.1633L55.2033 4.37037H54.9966L55.1573 17H52.7921ZM75.7603 17.2985C75.102 17.2985 74.5127 17.176 73.9922 16.9311C73.4717 16.6709 73.0583 16.2881 72.7522 15.783C72.4613 15.2778 72.3159 14.6501 72.3159 13.9C72.3159 13.303 72.423 12.7901 72.6373 12.3615C72.867 11.9175 73.2038 11.5501 73.6477 11.2593C74.107 10.9531 74.6887 10.7081 75.3929 10.5244C76.0971 10.3254 76.9314 10.157 77.8959 10.0193C78.4317 9.94272 78.868 9.86617 79.2048 9.78963C79.5569 9.71309 79.8094 9.59062 79.9625 9.42222C80.1309 9.25383 80.2151 9.00123 80.2151 8.66444C80.2151 8.14395 80.0314 7.7 79.664 7.33259C79.3119 6.94988 78.7378 6.75852 77.9418 6.75852C77.4978 6.75852 77.0539 6.83506 76.6099 6.98815C76.1813 7.14123 75.8062 7.39383 75.4848 7.74593C75.1786 8.08272 74.9719 8.54198 74.8648 9.1237L72.6144 8.41185C72.7522 7.83012 72.9741 7.31728 73.2803 6.87333C73.5865 6.41407 73.9692 6.03136 74.4285 5.72519C74.8877 5.4037 75.4159 5.16642 76.0129 5.01333C76.6252 4.84494 77.2912 4.76074 78.0107 4.76074C79.067 4.76074 79.9396 4.93679 80.6285 5.28889C81.3173 5.64099 81.8302 6.18444 82.167 6.91926C82.5191 7.63877 82.6951 8.56494 82.6951 9.69778V12.1319C82.6951 12.637 82.7028 13.1728 82.7181 13.7393C82.7487 14.2904 82.7793 14.8491 82.8099 15.4156C82.8559 15.9667 82.9094 16.4948 82.9707 17H80.6973C80.6514 16.5407 80.6055 16.0662 80.5596 15.5763C80.5289 15.0864 80.4983 14.5889 80.4677 14.0837H80.1233C79.9089 14.6654 79.6028 15.2012 79.2048 15.6911C78.822 16.181 78.3398 16.5714 77.7581 16.8622C77.1917 17.1531 76.5257 17.2985 75.7603 17.2985ZM76.6329 15.3696C76.9544 15.3696 77.2759 15.316 77.5973 15.2089C77.9341 15.1017 78.2633 14.941 78.5848 14.7267C78.9215 14.497 79.2277 14.2062 79.5033 13.8541C79.7941 13.502 80.0467 13.081 80.261 12.5911L80.2381 10.4326L80.8351 10.5474C80.5749 10.777 80.2457 10.9531 79.8477 11.0756C79.465 11.198 79.044 11.2975 78.5848 11.3741C78.1255 11.4353 77.6662 11.5119 77.207 11.6037C76.763 11.6802 76.3497 11.7951 75.967 11.9481C75.5996 12.0859 75.301 12.2849 75.0714 12.5452C74.8571 12.8054 74.7499 13.1652 74.7499 13.6244C74.7499 14.1909 74.926 14.6272 75.2781 14.9333C75.6302 15.2242 76.0818 15.3696 76.6329 15.3696ZM89.8673 17.2985C88.8569 17.2985 87.9843 17.0383 87.2495 16.5178C86.5147 15.982 85.9559 15.2472 85.5732 14.3133C85.1905 13.3642 84.9991 12.2696 84.9991 11.0296C84.9991 9.82025 85.1752 8.74864 85.5273 7.81482C85.8947 6.86568 86.4305 6.12321 87.1347 5.58741C87.8542 5.05161 88.7344 4.7837 89.7754 4.7837C90.6021 4.7837 91.2833 4.9521 91.8191 5.28889C92.3549 5.61037 92.7836 6.05432 93.1051 6.62074C93.4418 7.18716 93.6944 7.81482 93.8628 8.5037H94.3221C94.2455 8.05975 94.169 7.60049 94.0925 7.12593C94.0159 6.63605 93.9547 6.16914 93.9088 5.72519C93.8628 5.26593 93.8399 4.86025 93.8399 4.50815V0.811111H96.3658V11.1215V17H94.1843L94.2762 13.6933H93.8628C93.6791 14.4435 93.4189 15.0864 93.0821 15.6222C92.7453 16.158 92.309 16.5714 91.7732 16.8622C91.2527 17.1531 90.6174 17.2985 89.8673 17.2985ZM90.5562 15.1859C91.092 15.1859 91.5665 15.0635 91.9799 14.8185C92.3932 14.5736 92.7376 14.2521 93.0132 13.8541C93.2888 13.456 93.4954 13.0274 93.6332 12.5681C93.7863 12.0936 93.8628 11.6496 93.8628 11.2363V10.9148C93.8628 10.6086 93.8169 10.2795 93.7251 9.92741C93.6485 9.56 93.5184 9.20025 93.3347 8.84815C93.1663 8.48074 92.952 8.15161 92.6917 7.86074C92.4315 7.56988 92.1176 7.34025 91.7502 7.17185C91.3981 6.98815 91.0001 6.8963 90.5562 6.8963C89.9132 6.8963 89.3697 7.08 88.9258 7.44741C88.4972 7.79951 88.168 8.28938 87.9384 8.91704C87.7088 9.54469 87.5939 10.2642 87.5939 11.0756C87.5939 11.9022 87.7088 12.6294 87.9384 13.257C88.1833 13.8694 88.5278 14.344 88.9717 14.6807C89.4157 15.0175 89.9438 15.1859 90.5562 15.1859ZM104.591 17.2985C103.642 17.2985 102.8 17.1607 102.065 16.8852C101.33 16.5943 100.71 16.1886 100.205 15.6681C99.6997 15.1323 99.317 14.497 99.0568 13.7622C98.7965 13.0121 98.6664 12.1701 98.6664 11.2363C98.6664 10.3025 98.7965 9.44519 99.0568 8.66444C99.317 7.8684 99.6844 7.17951 100.159 6.59778C100.649 6.01605 101.246 5.56444 101.95 5.24296C102.67 4.92148 103.481 4.76074 104.384 4.76074C105.226 4.76074 105.976 4.89852 106.635 5.17407C107.308 5.44963 107.875 5.87062 108.334 6.43704C108.793 6.98815 109.138 7.68469 109.367 8.52667C109.597 9.35333 109.681 10.3254 109.62 11.443L100.274 11.5119V9.95037L108.15 9.88148L107.278 10.8459C107.369 9.92741 107.293 9.16963 107.048 8.57259C106.803 7.97556 106.451 7.53161 105.992 7.24074C105.532 6.94988 105.004 6.80444 104.407 6.80444C103.734 6.80444 103.144 6.98049 102.639 7.33259C102.149 7.66938 101.766 8.16691 101.491 8.82519C101.215 9.48346 101.078 10.2719 101.078 11.1904C101.078 12.5681 101.384 13.6091 101.996 14.3133C102.608 15.0022 103.481 15.3467 104.614 15.3467C105.088 15.3467 105.494 15.2931 105.831 15.1859C106.168 15.0635 106.451 14.9104 106.68 14.7267C106.91 14.5277 107.094 14.298 107.232 14.0378C107.385 13.7622 107.507 13.479 107.599 13.1881L109.78 13.6933C109.643 14.2598 109.428 14.7649 109.138 15.2089C108.862 15.6375 108.51 16.0126 108.081 16.3341C107.653 16.6402 107.147 16.8775 106.566 17.0459C105.999 17.2143 105.341 17.2985 104.591 17.2985ZM58.2573 36.2985C57.2623 36.2985 56.3744 36.199 55.5936 36C54.8282 35.7857 54.1776 35.4795 53.6418 35.0815C53.1213 34.6681 52.7233 34.163 52.4477 33.5659C52.1875 32.9536 52.065 32.2494 52.0803 31.4533L54.3077 30.8563C54.2771 31.6217 54.4225 32.257 54.744 32.7622C55.0655 33.2674 55.54 33.6501 56.1677 33.9104C56.8107 34.1553 57.5455 34.2778 58.3721 34.2778C59.1835 34.2778 59.8647 34.1783 60.4158 33.9793C60.967 33.7802 61.3803 33.5123 61.6558 33.1756C61.9467 32.8235 62.0921 32.4254 62.0921 31.9815C62.0921 31.4763 61.9161 31.0783 61.564 30.7874C61.2272 30.4812 60.7756 30.244 60.2092 30.0756C59.6428 29.8919 59.0075 29.7235 58.3033 29.5704C57.5837 29.4173 56.8719 29.2412 56.1677 29.0422C55.4635 28.8432 54.8205 28.583 54.2388 28.2615C53.6724 27.9247 53.2131 27.496 52.861 26.9756C52.5242 26.4551 52.3558 25.7968 52.3558 25.0007C52.3558 24.0822 52.5855 23.2938 53.0447 22.6356C53.504 21.9773 54.1546 21.4644 54.9966 21.097C55.8539 20.7296 56.8642 20.5459 58.0277 20.5459C59.1912 20.5459 60.2092 20.7296 61.0818 21.097C61.9697 21.4491 62.6662 21.9696 63.1714 22.6585C63.6919 23.3321 63.9598 24.1511 63.9751 25.1156L61.6788 25.7126C61.6788 25.1921 61.587 24.7328 61.4033 24.3348C61.2349 23.9368 60.9899 23.6077 60.6684 23.3474C60.347 23.0872 59.9642 22.8958 59.5203 22.7733C59.0763 22.6356 58.5712 22.5667 58.0047 22.5667C57.3465 22.5667 56.7724 22.6662 56.2825 22.8652C55.7926 23.0489 55.4099 23.3091 55.1344 23.6459C54.8741 23.9674 54.744 24.3501 54.744 24.7941C54.744 25.3452 54.9354 25.7815 55.3181 26.103C55.7161 26.4091 56.2366 26.6617 56.8796 26.8607C57.5225 27.0444 58.2114 27.2205 58.9462 27.3889C59.6045 27.5267 60.2551 27.6951 60.8981 27.8941C61.5563 28.0778 62.1534 28.3304 62.6892 28.6519C63.2403 28.9733 63.6766 29.3943 63.9981 29.9148C64.3349 30.4353 64.5033 31.1012 64.5033 31.9126C64.5033 32.8005 64.266 33.5736 63.7914 34.2319C63.3321 34.8901 62.6433 35.403 61.7247 35.7704C60.8062 36.1225 59.6504 36.2985 58.2573 36.2985ZM72.0954 36.2985C70.9472 36.2985 69.9292 36.0536 69.0413 35.5637C68.1534 35.0738 67.4569 34.362 66.9517 33.4281C66.4618 32.4943 66.2169 31.3462 66.2169 29.9837C66.2169 28.5906 66.4771 27.4348 66.9976 26.5163C67.5181 25.5978 68.2146 24.9089 69.0872 24.4496C69.9751 23.9904 70.9702 23.7607 72.0724 23.7607C73.2053 23.7607 74.2156 23.998 75.1035 24.4726C75.9914 24.9472 76.688 25.6514 77.1932 26.5852C77.7137 27.519 77.9739 28.6825 77.9739 30.0756C77.9739 31.4533 77.7137 32.6091 77.1932 33.543C76.688 34.4615 75.9914 35.1504 75.1035 35.6096C74.2156 36.0689 73.2129 36.2985 72.0954 36.2985ZM72.1872 34.3237C72.8761 34.3237 73.4655 34.163 73.9554 33.8415C74.4453 33.52 74.8203 33.0454 75.0806 32.4178C75.3408 31.7901 75.4709 31.04 75.4709 30.1674C75.4709 29.2642 75.3332 28.4911 75.0576 27.8481C74.782 27.1899 74.384 26.6847 73.8635 26.3326C73.3583 25.9805 72.7383 25.8044 72.0035 25.8044C71.3453 25.8044 70.7635 25.9652 70.2583 26.2867C69.7685 26.5928 69.3934 27.0598 69.1332 27.6874C68.8729 28.2998 68.7428 29.0499 68.7428 29.9378C68.7428 31.3309 69.049 32.4101 69.6613 33.1756C70.2737 33.941 71.1156 34.3237 72.1872 34.3237ZM80.282 36V28.6519V24.0593H82.4406L82.3028 27.7793H82.6931C82.9075 26.8607 83.1907 26.1106 83.5428 25.5289C83.9102 24.9319 84.3694 24.4879 84.9206 24.197C85.487 23.9062 86.1452 23.7607 86.8954 23.7607C88.2272 23.7607 89.2376 24.2353 89.9265 25.1844C90.6307 26.1336 90.9828 27.5802 90.9828 29.5244V36H88.4569V29.777C88.4569 28.4452 88.2578 27.4731 87.8598 26.8607C87.4618 26.2331 86.8648 25.9193 86.0687 25.9193C85.3798 25.9193 84.7904 26.1412 84.3006 26.5852C83.826 27.0138 83.4586 27.5802 83.1983 28.2844C82.9381 28.9886 82.7927 29.7541 82.762 30.5807V36H80.282ZM98.3401 40.0874C97.0541 40.0874 95.9979 39.9879 95.1712 39.7889C94.3598 39.5899 93.7628 39.2914 93.3801 38.8933C92.9974 38.4953 92.806 38.0054 92.806 37.4237C92.806 36.7195 93.0816 36.1454 93.6327 35.7015C94.1838 35.2422 95.0181 34.9514 96.1356 34.8289V34.3696C95.309 34.3849 94.6813 34.3007 94.2527 34.117C93.8393 33.918 93.6327 33.6119 93.6327 33.1985C93.6327 32.7699 93.8393 32.4101 94.2527 32.1193C94.6813 31.8131 95.3702 31.5452 96.3193 31.3156V30.8793C95.3855 30.8486 94.666 30.5578 94.1608 30.0067C93.6556 29.4556 93.403 28.7514 93.403 27.8941C93.403 27.1133 93.6097 26.4321 94.023 25.8504C94.4517 25.2533 95.0717 24.7941 95.883 24.4726C96.7097 24.1358 97.7048 23.9674 98.8682 23.9674H104.632V25.9881L100.935 25.437V25.8963C101.853 26.0647 102.542 26.3556 103.002 26.7689C103.461 27.1822 103.69 27.741 103.69 28.4452C103.69 29.0728 103.491 29.6316 103.093 30.1215C102.711 30.6114 102.144 30.9941 101.394 31.2696C100.644 31.5299 99.7255 31.66 98.6386 31.66C98.4396 31.66 98.2253 31.6523 97.9956 31.637C97.766 31.6217 97.4292 31.5835 96.9853 31.5222C96.6179 31.7519 96.3193 31.9662 96.0897 32.1652C95.8754 32.3642 95.7682 32.5402 95.7682 32.6933C95.7682 32.8464 95.8601 32.9689 96.0438 33.0607C96.2428 33.1526 96.4877 33.2138 96.7786 33.2444C97.0695 33.2751 97.345 33.2904 97.6053 33.2904H100.545C100.851 33.2904 101.241 33.321 101.716 33.3822C102.19 33.4281 102.665 33.5506 103.139 33.7496C103.614 33.9486 104.012 34.2625 104.333 34.6911C104.655 35.1044 104.816 35.6862 104.816 36.4363C104.816 37.2936 104.571 37.9901 104.081 38.5259C103.591 39.0617 102.864 39.4521 101.899 39.697C100.935 39.9573 99.7485 40.0874 98.3401 40.0874ZM98.5008 38.0437C99.4806 38.0437 100.269 37.9825 100.866 37.86C101.463 37.7528 101.899 37.5691 102.175 37.3089C102.45 37.0486 102.588 36.7195 102.588 36.3215C102.588 35.9541 102.496 35.6709 102.313 35.4719C102.129 35.2575 101.899 35.1121 101.624 35.0356C101.364 34.9437 101.096 34.8901 100.82 34.8748C100.545 34.8595 100.307 34.8519 100.108 34.8519H97.3756C96.5643 34.9896 95.9979 35.2269 95.6764 35.5637C95.3549 35.8852 95.1941 36.2449 95.1941 36.643C95.1941 37.0257 95.3319 37.3165 95.6075 37.5156C95.883 37.7299 96.2658 37.8677 96.7556 37.9289C97.2608 38.0054 97.8425 38.0437 98.5008 38.0437ZM98.6616 30.1904C99.5495 30.1904 100.215 29.999 100.659 29.6163C101.119 29.2183 101.348 28.6978 101.348 28.0548C101.348 27.3659 101.119 26.8072 100.659 26.3785C100.2 25.9346 99.5188 25.7126 98.6156 25.7126C97.7277 25.7126 97.0465 25.9269 96.5719 26.3556C96.1127 26.7842 95.883 27.3277 95.883 27.9859C95.883 28.4299 95.9902 28.8202 96.2045 29.157C96.4188 29.4785 96.725 29.7311 97.123 29.9148C97.5364 30.0985 98.0492 30.1904 98.6616 30.1904ZM111.381 36.2985C110.554 36.2985 109.819 36.2143 109.176 36.0459C108.533 35.8775 107.982 35.6402 107.523 35.3341C107.079 35.0126 106.734 34.6299 106.489 34.1859C106.244 33.742 106.099 33.2598 106.053 32.7393L108.074 32.0733C108.074 32.5173 108.212 32.9153 108.487 33.2674C108.763 33.6195 109.153 33.8951 109.658 34.0941C110.179 34.2778 110.799 34.3696 111.518 34.3696C112.36 34.3696 113.011 34.2319 113.47 33.9563C113.929 33.6807 114.159 33.298 114.159 32.8081C114.159 32.4407 114.029 32.1499 113.769 31.9356C113.524 31.7212 113.164 31.5452 112.689 31.4074C112.23 31.2696 111.687 31.1395 111.059 31.017C110.493 30.8946 109.926 30.7568 109.36 30.6037C108.809 30.4353 108.296 30.221 107.821 29.9607C107.362 29.7005 106.987 29.3637 106.696 28.9504C106.421 28.5217 106.283 27.9859 106.283 27.343C106.283 26.6081 106.474 25.9805 106.857 25.46C107.24 24.9242 107.791 24.5109 108.51 24.22C109.245 23.9138 110.118 23.7607 111.128 23.7607C112.108 23.7607 112.95 23.9062 113.654 24.197C114.373 24.4879 114.947 24.8936 115.376 25.4141C115.805 25.9346 116.065 26.5469 116.157 27.2511L114.044 27.8711C114.014 27.3965 113.868 26.9985 113.608 26.677C113.363 26.3556 113.026 26.1183 112.598 25.9652C112.169 25.7968 111.664 25.7126 111.082 25.7126C110.317 25.7126 109.712 25.8504 109.268 26.1259C108.839 26.4015 108.625 26.7765 108.625 27.2511C108.625 27.6185 108.755 27.917 109.015 28.1467C109.291 28.361 109.658 28.537 110.118 28.6748C110.592 28.7973 111.128 28.9198 111.725 29.0422C112.337 29.1647 112.927 29.3025 113.493 29.4556C114.06 29.6086 114.565 29.8153 115.009 30.0756C115.468 30.3205 115.828 30.6573 116.088 31.0859C116.363 31.4993 116.501 32.0274 116.501 32.6704C116.501 33.4511 116.287 34.117 115.858 34.6681C115.445 35.204 114.856 35.6096 114.09 35.8852C113.325 36.1607 112.422 36.2985 111.381 36.2985Z" fill="#111111"/>
<path d="M52.7921 17H52.7736V17.0185H52.7921V17ZM52.7921 1.84445V1.82593H52.7736V1.84445H52.7921ZM56.627 1.84445L56.6443 1.83783L56.6397 1.82593H56.627V1.84445ZM61.3803 14.2674L61.363 14.274L61.3675 14.2859H61.3803V14.2674ZM61.4951 14.2674V14.2859H61.5079L61.5124 14.274L61.4951 14.2674ZM66.2255 1.84445V1.82593H66.2127L66.2082 1.83786L66.2255 1.84445ZM69.8995 1.84445H69.9181V1.82593H69.8995V1.84445ZM69.8995 17V17.0185H69.9181V17H69.8995ZM67.5114 17L67.4929 16.9998L67.4926 17.0185H67.5114V17ZM67.6721 4.37037L67.6907 4.37061L67.6909 4.35185H67.6721V4.37037ZM67.4655 4.37037V4.35185H67.4529L67.4483 4.36355L67.4655 4.37037ZM62.4595 17V17.0185H62.4721L62.4768 17.0068L62.4595 17ZM60.1633 17L60.146 17.0068L60.1506 17.0185H60.1633V17ZM55.2033 4.37037L55.2205 4.3636L55.2159 4.35185H55.2033V4.37037ZM54.9966 4.37037V4.35185H54.9778L54.9781 4.37061L54.9966 4.37037ZM55.1573 17V17.0185H55.1761L55.1758 16.9998L55.1573 17ZM52.7921 17H52.8107V1.84445H52.7921H52.7736V17H52.7921ZM52.7921 1.84445V1.86296H56.627V1.84445V1.82593H52.7921V1.84445ZM56.627 1.84445L56.6097 1.85106L61.363 14.274L61.3803 14.2674L61.3976 14.2608L56.6443 1.83783L56.627 1.84445ZM61.3803 14.2674V14.2859H61.4951V14.2674V14.2489H61.3803V14.2674ZM61.4951 14.2674L61.5124 14.274L66.2428 1.85104L66.2255 1.84445L66.2082 1.83786L61.4778 14.2608L61.4951 14.2674ZM66.2255 1.84445V1.86296H69.8995V1.84445V1.82593H66.2255V1.84445ZM69.8995 1.84445H69.881V17H69.8995H69.9181V1.84445H69.8995ZM69.8995 17V16.9815H67.5114V17V17.0185H69.8995V17ZM67.5114 17L67.5299 17.0002L67.6907 4.37061L67.6721 4.37037L67.6536 4.37014L67.4929 16.9998L67.5114 17ZM67.6721 4.37037V4.35185H67.4655V4.37037V4.38889H67.6721V4.37037ZM67.4655 4.37037L67.4483 4.36355L62.4423 16.9932L62.4595 17L62.4768 17.0068L67.4827 4.37719L67.4655 4.37037ZM62.4595 17V16.9815H60.1633V17V17.0185H62.4595V17ZM60.1633 17L60.1805 16.9932L55.2205 4.3636L55.2033 4.37037L55.186 4.37714L60.146 17.0068L60.1633 17ZM55.2033 4.37037V4.35185H54.9966V4.37037V4.38889H55.2033V4.37037ZM54.9966 4.37037L54.9781 4.37061L55.1388 17.0002L55.1573 17L55.1758 16.9998L55.0151 4.37014L54.9966 4.37037ZM55.1573 17V16.9815H52.7921V17V17.0185H55.1573V17ZM73.9922 16.9311L73.9839 16.9477L73.9843 16.9479L73.9922 16.9311ZM72.7522 15.783L72.7361 15.7922L72.7363 15.7926L72.7522 15.783ZM72.6373 12.3615L72.6209 12.353L72.6208 12.3532L72.6373 12.3615ZM73.6477 11.2593L73.6579 11.2747L73.658 11.2747L73.6477 11.2593ZM75.3929 10.5244L75.3976 10.5424L75.3979 10.5423L75.3929 10.5244ZM77.8959 10.0193L77.8932 10.0009V10.0009L77.8959 10.0193ZM79.2048 9.78963L79.2008 9.77153L79.2006 9.77157L79.2048 9.78963ZM79.9625 9.42222L79.9494 9.40911L79.9488 9.40977L79.9625 9.42222ZM79.664 7.33259L79.6504 7.34514L79.6509 7.34569L79.664 7.33259ZM76.6099 6.98815L76.6039 6.97064L76.6037 6.97071L76.6099 6.98815ZM75.4848 7.74593L75.4711 7.73344L75.4711 7.73347L75.4848 7.74593ZM74.8648 9.1237L74.8592 9.14136L74.8792 9.14769L74.883 9.12706L74.8648 9.1237ZM72.6144 8.41185L72.5964 8.40758L72.5924 8.42432L72.6088 8.42951L72.6144 8.41185ZM73.2803 6.87333L73.2956 6.88385L73.2957 6.88361L73.2803 6.87333ZM74.4285 5.72519L74.4387 5.7406L74.4391 5.74036L74.4285 5.72519ZM76.0129 5.01333L76.0175 5.03127L76.0178 5.03119L76.0129 5.01333ZM80.6285 5.28889L80.6369 5.2724V5.2724L80.6285 5.28889ZM82.167 6.91926L82.1501 6.92698L82.1503 6.9274L82.167 6.91926ZM82.7181 13.7393L82.6996 13.7398L82.6996 13.7403L82.7181 13.7393ZM82.8099 15.4156L82.7914 15.4166L82.7915 15.4171L82.8099 15.4156ZM82.9707 17V17.0185H82.9916L82.9891 16.9978L82.9707 17ZM80.6973 17L80.6789 17.0018L80.6806 17.0185H80.6973V17ZM80.5596 15.5763L80.5411 15.5775L80.5411 15.578L80.5596 15.5763ZM80.4677 14.0837L80.4862 14.0826L80.4851 14.0652H80.4677V14.0837ZM80.1233 14.0837V14.0652H80.1104L80.1059 14.0773L80.1233 14.0837ZM79.2048 15.6911L79.1904 15.6794L79.1902 15.6797L79.2048 15.6911ZM77.7581 16.8622L77.7498 16.8457L77.7496 16.8457L77.7581 16.8622ZM77.5973 15.2089L77.5917 15.1912L77.5915 15.1913L77.5973 15.2089ZM78.5848 14.7267L78.595 14.7421L78.5952 14.742L78.5848 14.7267ZM79.5033 13.8541L79.489 13.8423L79.4887 13.8427L79.5033 13.8541ZM80.261 12.5911L80.2797 12.5993L80.2796 12.5909L80.261 12.5911ZM80.2381 10.4326L80.2416 10.4144L80.2193 10.4101L80.2196 10.4328L80.2381 10.4326ZM80.8351 10.5474L80.8474 10.5613L80.8757 10.5363L80.8386 10.5292L80.8351 10.5474ZM79.8477 11.0756L79.8423 11.0579L79.8421 11.0579L79.8477 11.0756ZM78.5848 11.3741L78.5872 11.3924L78.5878 11.3923L78.5848 11.3741ZM77.207 11.6037L77.2101 11.622L77.2106 11.6219L77.207 11.6037ZM75.967 11.9481L75.9735 11.9655L75.9739 11.9653L75.967 11.9481ZM75.0714 12.5452L75.0575 12.5329L75.0571 12.5334L75.0714 12.5452ZM75.2781 14.9333L75.2659 14.9473L75.2663 14.9476L75.2781 14.9333ZM75.7603 17.2985V17.28C75.1044 17.28 74.5177 17.158 74 16.9144L73.9922 16.9311L73.9843 16.9479C74.5076 17.1941 75.0997 17.317 75.7603 17.317V17.2985ZM73.9922 16.9311L74.0004 16.9145C73.4831 16.6559 73.0724 16.2756 72.768 15.7734L72.7522 15.783L72.7363 15.7926C73.0443 16.3007 73.4602 16.6858 73.9839 16.9477L73.9922 16.9311ZM72.7522 15.783L72.7682 15.7737C72.4794 15.272 72.3344 14.6478 72.3344 13.9H72.3159H72.2973C72.2973 14.6525 72.4432 15.2835 72.7361 15.7922L72.7522 15.783ZM72.3159 13.9H72.3344C72.3344 13.3051 72.4412 12.7953 72.6539 12.3698L72.6373 12.3615L72.6208 12.3532C72.4049 12.785 72.2973 13.3008 72.2973 13.9H72.3159ZM72.6373 12.3615L72.6538 12.37C72.8819 11.929 73.2164 11.564 73.6579 11.2747L73.6477 11.2593L73.6376 11.2438C73.1911 11.5363 72.8521 11.906 72.6209 12.353L72.6373 12.3615ZM73.6477 11.2593L73.658 11.2747C74.1151 10.9699 74.6948 10.7257 75.3976 10.5424L75.3929 10.5244L75.3882 10.5065C74.6826 10.6906 74.0989 10.9362 73.6374 11.2439L73.6477 11.2593ZM75.3929 10.5244L75.3979 10.5423C76.1011 10.3435 76.9346 10.1753 77.8985 10.0376L77.8959 10.0193L77.8932 10.0009C76.9282 10.1388 76.0931 10.3073 75.3879 10.5066L75.3929 10.5244ZM77.8959 10.0193L77.8985 10.0376C78.4345 9.96101 78.8714 9.88439 79.2089 9.80769L79.2048 9.78963L79.2006 9.77157C78.8645 9.84796 78.4288 9.92442 77.8932 10.0009L77.8959 10.0193ZM79.2048 9.78963L79.2087 9.80773C79.5625 9.73081 79.8194 9.60715 79.9762 9.43468L79.9625 9.42222L79.9488 9.40977C79.7994 9.57409 79.5512 9.69537 79.2008 9.77153L79.2048 9.78963ZM79.9625 9.42222L79.9756 9.43532C80.1487 9.26222 80.2336 9.00409 80.2336 8.66444H80.2151H80.1966C80.1966 8.99838 80.1131 9.24543 79.9494 9.40913L79.9625 9.42222ZM80.2151 8.66444H80.2336C80.2336 8.13905 80.048 7.69038 79.6771 7.3195L79.664 7.33259L79.6509 7.34569C80.0148 7.70961 80.1966 8.14885 80.1966 8.66444H80.2151ZM79.664 7.33259L79.6776 7.32005C79.3205 6.9319 78.7403 6.74 77.9418 6.74V6.75852V6.77704C78.7354 6.77704 79.3033 6.96785 79.6504 7.34513L79.664 7.33259ZM77.9418 6.75852V6.74C77.4957 6.74 77.0497 6.81692 76.6039 6.97064L76.6099 6.98815L76.616 7.00566C77.0581 6.8532 77.5 6.77704 77.9418 6.77704V6.75852ZM76.6099 6.98815L76.6037 6.97071C76.1721 7.12486 75.7945 7.37922 75.4711 7.73344L75.4848 7.74593L75.4984 7.75841C75.818 7.40844 76.1905 7.15761 76.6162 7.00559L76.6099 6.98815ZM75.4848 7.74593L75.4711 7.73347C75.162 8.07347 74.9541 8.53622 74.8465 9.12035L74.8648 9.1237L74.883 9.12706C74.9897 8.54773 75.1952 8.09196 75.4985 7.75838L75.4848 7.74593ZM74.8648 9.1237L74.8703 9.10605L72.62 8.3942L72.6144 8.41185L72.6088 8.42951L74.8592 9.14136L74.8648 9.1237ZM72.6144 8.41185L72.6324 8.41612C72.7697 7.83638 72.9908 7.32571 73.2956 6.88385L73.2803 6.87333L73.2651 6.86282C72.9575 7.30886 72.7346 7.82386 72.5964 8.40758L72.6144 8.41185ZM73.2803 6.87333L73.2957 6.88361C73.6005 6.42638 73.9815 6.04541 74.4387 5.74059L74.4285 5.72519L74.4182 5.70978C73.9569 6.01731 73.5724 6.40177 73.2649 6.86306L73.2803 6.87333ZM74.4285 5.72519L74.4391 5.74036C74.8963 5.42027 75.4224 5.18386 76.0175 5.03127L76.0129 5.01333L76.0083 4.9954C75.4093 5.14898 74.8791 5.38714 74.4178 5.71001L74.4285 5.72519ZM76.0129 5.01333L76.0178 5.03119C76.6284 4.86329 77.2926 4.77926 78.0107 4.77926V4.76074V4.74222C77.2897 4.74222 76.6221 4.82659 76.008 4.99548L76.0129 5.01333ZM78.0107 4.76074V4.77926C79.0651 4.77926 79.9345 4.95501 80.62 5.30538L80.6285 5.28889L80.6369 5.2724C79.9446 4.91857 79.0689 4.74222 78.0107 4.74222V4.76074ZM80.6285 5.28889L80.62 5.30538C81.305 5.65549 81.815 6.19576 82.1501 6.92698L82.167 6.91926L82.1838 6.91154C81.8454 6.17313 81.3297 5.62648 80.6369 5.2724L80.6285 5.28889ZM82.167 6.91926L82.1503 6.9274C82.5008 7.64355 82.6766 8.56667 82.6766 9.69778H82.6951H82.7136C82.7136 8.56321 82.5373 7.63399 82.1836 6.91112L82.167 6.91926ZM82.6951 9.69778H82.6766V12.1319H82.6951H82.7136V9.69778H82.6951ZM82.6951 12.1319H82.6766C82.6766 12.6372 82.6843 13.1732 82.6996 13.7398L82.7181 13.7393L82.7366 13.7388C82.7213 13.1725 82.7136 12.6369 82.7136 12.1319H82.6951ZM82.7181 13.7393L82.6996 13.7403C82.7302 14.2914 82.7608 14.8501 82.7914 15.4166L82.8099 15.4156L82.8284 15.4146C82.7978 14.8481 82.7672 14.2894 82.7366 13.7382L82.7181 13.7393ZM82.8099 15.4156L82.7915 15.4171C82.8374 15.9684 82.891 16.4968 82.9523 17.0022L82.9707 17L82.9891 16.9978C82.9279 16.4928 82.8743 15.9649 82.8284 15.414L82.8099 15.4156ZM82.9707 17V16.9815H80.6973V17V17.0185H82.9707V17ZM80.6973 17L80.7158 16.9982C80.6698 16.5389 80.6239 16.0644 80.578 15.5746L80.5596 15.5763L80.5411 15.578C80.5871 16.0679 80.633 16.5425 80.6789 17.0018L80.6973 17ZM80.5596 15.5763L80.578 15.5751C80.5474 15.0853 80.5168 14.5878 80.4862 14.0826L80.4677 14.0837L80.4492 14.0848C80.4798 14.59 80.5105 15.0876 80.5411 15.5775L80.5596 15.5763ZM80.4677 14.0837V14.0652H80.1233V14.0837V14.1022H80.4677V14.0837ZM80.1233 14.0837L80.1059 14.0773C79.8923 14.6571 79.5871 15.1911 79.1904 15.6794L79.2048 15.6911L79.2191 15.7028C79.6184 15.2114 79.9256 14.6738 80.1406 14.0901L80.1233 14.0837ZM79.2048 15.6911L79.1902 15.6797C78.8092 16.1673 78.3292 16.556 77.7498 16.8457L77.7581 16.8622L77.7664 16.8788C78.3504 16.5868 78.8349 16.1947 79.2193 15.7025L79.2048 15.6911ZM77.7581 16.8622L77.7496 16.8457C77.1863 17.135 76.5234 17.28 75.7603 17.28V17.2985V17.317C76.5281 17.317 77.197 17.1712 77.7665 16.8787L77.7581 16.8622ZM76.6329 15.3696V15.3881C76.9565 15.3881 77.2799 15.3342 77.6032 15.2265L77.5973 15.2089L77.5915 15.1913C77.2718 15.2979 76.9523 15.3511 76.6329 15.3511V15.3696ZM77.5973 15.2089L77.603 15.2265C77.9415 15.1188 78.2722 14.9573 78.595 14.7421L78.5848 14.7267L78.5745 14.7113C78.2543 14.9247 77.9267 15.0847 77.5917 15.1912L77.5973 15.2089ZM78.5848 14.7267L78.5952 14.742C78.9337 14.5112 79.2412 14.2189 79.5179 13.8655L79.5033 13.8541L79.4887 13.8427C79.2142 14.1934 78.9094 14.4829 78.5743 14.7114L78.5848 14.7267ZM79.5033 13.8541L79.5175 13.8659C79.8097 13.5122 80.0631 13.0897 80.278 12.5985L80.261 12.5911L80.2441 12.5837C80.0303 13.0723 79.7786 13.4917 79.489 13.8423L79.5033 13.8541ZM80.261 12.5911L80.2796 12.5909L80.2566 10.4324L80.2381 10.4326L80.2196 10.4328L80.2425 12.5913L80.261 12.5911ZM80.2381 10.4326L80.2346 10.4508L80.8316 10.5656L80.8351 10.5474L80.8386 10.5292L80.2416 10.4144L80.2381 10.4326ZM80.8351 10.5474L80.8229 10.5335C80.5649 10.7611 80.2383 10.936 79.8423 11.0579L79.8477 11.0756L79.8532 11.0933C80.2532 10.9702 80.5848 10.793 80.8474 10.5613L80.8351 10.5474ZM79.8477 11.0756L79.8421 11.0579C79.4603 11.1801 79.0402 11.2794 78.5817 11.3558L78.5848 11.3741L78.5878 11.3923C79.0478 11.3157 79.4697 11.216 79.8534 11.0932L79.8477 11.0756ZM78.5848 11.3741L78.5823 11.3557C78.1226 11.417 77.663 11.4936 77.2033 11.5855L77.207 11.6037L77.2106 11.6219C77.6695 11.5301 78.1283 11.4536 78.5872 11.3924L78.5848 11.3741ZM77.207 11.6037L77.2038 11.5855C76.7587 11.6622 76.3441 11.7773 75.9601 11.931L75.967 11.9481L75.9739 11.9653C76.3553 11.8128 76.7673 11.6983 77.2101 11.622L77.207 11.6037ZM75.967 11.9481L75.9605 11.9308C75.5906 12.0695 75.2894 12.2701 75.0575 12.5329L75.0714 12.5452L75.0853 12.5574C75.3127 12.2997 75.6085 12.1023 75.9735 11.9655L75.967 11.9481ZM75.0714 12.5452L75.0571 12.5334C74.8392 12.798 74.7314 13.1624 74.7314 13.6244H74.7499H74.7685C74.7685 13.1679 74.875 12.8129 75.0857 12.557L75.0714 12.5452ZM74.7499 13.6244H74.7314C74.7314 14.195 74.9089 14.6369 75.2659 14.9473L75.2781 14.9333L75.2902 14.9194C74.943 14.6174 74.7685 14.1868 74.7685 13.6244H74.7499ZM75.2781 14.9333L75.2663 14.9476C75.6224 15.2418 76.0784 15.3881 76.6329 15.3881V15.3696V15.3511C76.0852 15.3511 75.638 15.2066 75.2899 14.9191L75.2781 14.9333ZM87.2495 16.5178L87.2386 16.5327L87.2388 16.5329L87.2495 16.5178ZM85.5732 14.3133L85.556 14.3203L85.5561 14.3204L85.5732 14.3133ZM85.5273 7.81482L85.51 7.80813L85.5099 7.80828L85.5273 7.81482ZM87.1347 5.58741L87.1236 5.57255L87.1235 5.57267L87.1347 5.58741ZM91.8191 5.28889L91.8093 5.30457L91.8096 5.30477L91.8191 5.28889ZM93.1051 6.62074L93.0889 6.62988L93.0891 6.63021L93.1051 6.62074ZM93.8628 8.5037L93.8448 8.5081L93.8483 8.52222H93.8628V8.5037ZM94.3221 8.5037V8.52222H94.3441L94.3403 8.50056L94.3221 8.5037ZM94.0925 7.12593L94.0742 7.12879L94.0742 7.12888L94.0925 7.12593ZM93.9088 5.72519L93.8903 5.72703L93.8903 5.72709L93.9088 5.72519ZM93.8399 0.811111V0.792593H93.8214V0.811111H93.8399ZM96.3658 0.811111H96.3843V0.792593H96.3658V0.811111ZM96.3658 17V17.0185H96.3843V17H96.3658ZM94.1843 17L94.1658 16.9995L94.1653 17.0185H94.1843V17ZM94.2762 13.6933L94.2947 13.6938L94.2952 13.6748H94.2762V13.6933ZM93.8628 13.6933V13.6748H93.8483L93.8448 13.6889L93.8628 13.6933ZM93.0821 15.6222L93.0664 15.6124V15.6124L93.0821 15.6222ZM91.7732 16.8622L91.7644 16.8459L91.7642 16.8461L91.7732 16.8622ZM91.9799 14.8185L91.9893 14.8344V14.8344L91.9799 14.8185ZM93.0132 13.8541L92.998 13.8435V13.8435L93.0132 13.8541ZM93.6332 12.5681L93.6156 12.5625L93.6155 12.5628L93.6332 12.5681ZM93.7251 9.92741L93.7069 9.93119L93.7071 9.93208L93.7251 9.92741ZM93.3347 8.84815L93.3178 8.85587L93.3183 8.85671L93.3347 8.84815ZM92.6917 7.86074L92.7055 7.84839V7.84839L92.6917 7.86074ZM91.7502 7.17185L91.7417 7.18829L91.7425 7.18869L91.7502 7.17185ZM88.9258 7.44741L88.9375 7.46172L88.9376 7.46167L88.9258 7.44741ZM87.9384 8.91704L87.921 8.91067V8.91067L87.9384 8.91704ZM87.9384 13.257L87.921 13.2634L87.9212 13.2639L87.9384 13.257ZM88.9717 14.6807L88.9829 14.666V14.666L88.9717 14.6807ZM89.8673 17.2985V17.28C88.8603 17.28 87.9915 17.0207 87.2602 16.5027L87.2495 16.5178L87.2388 16.5329C87.9771 17.0559 88.8536 17.317 89.8673 17.317V17.2985ZM87.2495 16.5178L87.2604 16.5028C86.5287 15.9692 85.9719 15.2373 85.5903 14.3063L85.5732 14.3133L85.5561 14.3204C85.9399 15.257 86.5007 15.9947 87.2386 16.5327L87.2495 16.5178ZM85.5732 14.3133L85.5904 14.3064C85.2087 13.3599 85.0176 12.2677 85.0176 11.0296H84.9991H84.9806C84.9806 12.2715 85.1723 13.3685 85.556 14.3203L85.5732 14.3133ZM84.9991 11.0296H85.0176C85.0176 9.82202 85.1934 8.7527 85.5446 7.82135L85.5273 7.81482L85.5099 7.80828C85.1569 8.74459 84.9806 9.81847 84.9806 11.0296H84.9991ZM85.5273 7.81482L85.5445 7.8215C85.9109 6.87507 86.4448 6.13558 87.1459 5.60215L87.1347 5.58741L87.1235 5.57267C86.4162 6.11084 85.8785 6.85629 85.51 7.80813L85.5273 7.81482ZM87.1347 5.58741L87.1457 5.60226C87.8616 5.06921 88.7378 4.80222 89.7754 4.80222V4.7837V4.76519C88.7311 4.76519 87.8468 5.03401 87.1236 5.57256L87.1347 5.58741ZM89.7754 4.7837V4.80222C90.5997 4.80222 91.2772 4.97012 91.8093 5.30457L91.8191 5.28889L91.829 5.27321C91.2895 4.93408 90.6045 4.76519 89.7754 4.76519V4.7837ZM91.8191 5.28889L91.8096 5.30477C92.3426 5.62454 92.769 6.06612 93.089 6.62988L93.1051 6.62074L93.1212 6.6116C92.7982 6.04253 92.3673 5.5962 91.8287 5.27301L91.8191 5.28889ZM93.1051 6.62074L93.0891 6.63021C93.4249 7.19493 93.6769 7.82086 93.8448 8.5081L93.8628 8.5037L93.8808 8.49931C93.712 7.80877 93.4588 7.17939 93.121 6.61128L93.1051 6.62074ZM93.8628 8.5037V8.52222H94.3221V8.5037V8.48519H93.8628V8.5037ZM94.3221 8.5037L94.3403 8.50056C94.2638 8.05668 94.1873 7.59748 94.1107 7.12298L94.0925 7.12593L94.0742 7.12888C94.1507 7.6035 94.2273 8.06283 94.3038 8.50685L94.3221 8.5037ZM94.0925 7.12593L94.1108 7.12307C94.0343 6.63347 93.9731 6.16688 93.9272 5.72328L93.9088 5.72519L93.8903 5.72709C93.9363 6.17139 93.9976 6.63863 94.0742 7.12879L94.0925 7.12593ZM93.9088 5.72519L93.9272 5.72334C93.8813 5.26452 93.8584 4.85948 93.8584 4.50815H93.8399H93.8214C93.8214 4.86102 93.8444 5.26733 93.8903 5.72703L93.9088 5.72519ZM93.8399 4.50815H93.8584V0.811111H93.8399H93.8214V4.50815H93.8399ZM93.8399 0.811111V0.82963H96.3658V0.811111V0.792593H93.8399V0.811111ZM96.3658 0.811111H96.3473V11.1215H96.3658H96.3843V0.811111H96.3658ZM96.3658 11.1215H96.3473V17H96.3658H96.3843V11.1215H96.3658ZM96.3658 17V16.9815H94.1843V17V17.0185H96.3658V17ZM94.1843 17L94.2028 17.0005L94.2947 13.6938L94.2762 13.6933L94.2577 13.6928L94.1658 16.9995L94.1843 17ZM94.2762 13.6933V13.6748H93.8628V13.6933V13.7119H94.2762V13.6933ZM93.8628 13.6933L93.8448 13.6889C93.6615 14.4375 93.4019 15.0786 93.0664 15.6124L93.0821 15.6222L93.0978 15.6321C93.4358 15.0943 93.6967 14.4494 93.8808 13.6977L93.8628 13.6933ZM93.0821 15.6222L93.0664 15.6124C92.7312 16.1456 92.2973 16.5567 91.7644 16.8459L91.7732 16.8622L91.782 16.8785C92.3207 16.5861 92.7594 16.1705 93.0978 15.6321L93.0821 15.6222ZM91.7732 16.8622L91.7642 16.8461C91.2471 17.135 90.615 17.28 89.8673 17.28V17.2985V17.317C90.6198 17.317 91.2584 17.1711 91.7822 16.8784L91.7732 16.8622ZM90.5562 15.1859V15.2044C91.0949 15.2044 91.5728 15.0813 91.9893 14.8344L91.9799 14.8185L91.9704 14.8026C91.5603 15.0456 91.089 15.1674 90.5562 15.1674V15.1859ZM91.9799 14.8185L91.9893 14.8344C92.405 14.5881 92.7514 14.2648 93.0284 13.8646L93.0132 13.8541L92.998 13.8435C92.7239 14.2394 92.3815 14.559 91.9704 14.8026L91.9799 14.8185ZM93.0132 13.8541L93.0284 13.8646C93.3051 13.465 93.5126 13.0346 93.6509 12.5735L93.6332 12.5681L93.6155 12.5628C93.4783 13.0202 93.2724 13.4471 92.998 13.8435L93.0132 13.8541ZM93.6332 12.5681L93.6508 12.5738C93.8044 12.0978 93.8814 11.6519 93.8814 11.2363H93.8628H93.8443C93.8443 11.6473 93.7682 12.0894 93.6156 12.5625L93.6332 12.5681ZM93.8628 11.2363H93.8814V10.9148H93.8628H93.8443V11.2363H93.8628ZM93.8628 10.9148H93.8814C93.8814 10.6068 93.8352 10.2761 93.743 9.92273L93.7251 9.92741L93.7071 9.93208C93.7987 10.2829 93.8443 10.6105 93.8443 10.9148H93.8628ZM93.7251 9.92741L93.7432 9.92363C93.6663 9.55446 93.5355 9.1931 93.3511 8.83958L93.3347 8.84815L93.3183 8.85671C93.5012 9.20739 93.6307 9.56554 93.7069 9.93118L93.7251 9.92741ZM93.3347 8.84815L93.3515 8.84043C93.1824 8.4714 92.9671 8.14069 92.7055 7.84839L92.6917 7.86074L92.6779 7.87309C92.9369 8.16252 93.1502 8.49008 93.3179 8.85586L93.3347 8.84815ZM92.6917 7.86074L92.7055 7.84839C92.4435 7.55556 92.1276 7.32444 91.758 7.15502L91.7502 7.17185L91.7425 7.18869C92.1077 7.35606 92.4194 7.58419 92.6779 7.87309L92.6917 7.86074ZM91.7502 7.17185L91.7588 7.15543C91.4038 6.97019 91.0027 6.87778 90.5562 6.87778V6.8963V6.91481C90.9975 6.91481 91.3925 7.0061 91.7417 7.18827L91.7502 7.17185ZM90.5562 6.8963V6.87778C89.9094 6.87778 89.3616 7.06266 88.914 7.43314L88.9258 7.44741L88.9376 7.46167C89.3778 7.09734 89.917 6.91481 90.5562 6.91481V6.8963ZM88.9258 7.44741L88.914 7.4331C88.4824 7.78769 88.1515 8.28055 87.921 8.91067L87.9384 8.91704L87.9558 8.9234C88.1845 8.29821 88.5119 7.81133 88.9375 7.46172L88.9258 7.44741ZM87.9384 8.91704L87.921 8.91067C87.6905 9.54075 87.5754 10.2625 87.5754 11.0756H87.5939H87.6125C87.6125 10.2659 87.727 9.54863 87.9558 8.9234L87.9384 8.91704ZM87.5939 11.0756H87.5754C87.5754 11.9039 87.6905 12.6333 87.921 13.2634L87.9384 13.257L87.9558 13.2507C87.7271 12.6255 87.6125 11.9005 87.6125 11.0756H87.5939ZM87.9384 13.257L87.9212 13.2639C88.1672 13.8788 88.5134 14.3563 88.9605 14.6955L88.9717 14.6807L88.9829 14.666C88.5421 14.3316 88.1995 13.86 87.9556 13.2502L87.9384 13.257ZM88.9717 14.6807L88.9605 14.6955C89.408 15.035 89.9402 15.2044 90.5562 15.2044V15.1859V15.1674C89.9474 15.1674 89.4233 15.0001 88.9829 14.666L88.9717 14.6807ZM102.065 16.8852L102.058 16.9024L102.058 16.9025L102.065 16.8852ZM100.205 15.6681L100.191 15.6809L100.192 15.681L100.205 15.6681ZM99.0568 13.7622L99.0393 13.7683L99.0393 13.7684L99.0568 13.7622ZM99.0568 8.66444L99.0743 8.6703L99.0744 8.6702L99.0568 8.66444ZM100.159 6.59778L100.145 6.58585L100.145 6.58607L100.159 6.59778ZM101.95 5.24296L101.943 5.22606L101.942 5.22612L101.95 5.24296ZM106.635 5.17407L106.627 5.19116L106.628 5.19121L106.635 5.17407ZM108.334 6.43704L108.319 6.4487L108.32 6.44889L108.334 6.43704ZM109.367 8.52667L109.349 8.53154L109.349 8.53162L109.367 8.52667ZM109.62 11.443L109.62 11.4615L109.637 11.4614L109.638 11.444L109.62 11.443ZM100.274 11.5119H100.255V11.5305L100.274 11.5304L100.274 11.5119ZM100.274 9.95037L100.274 9.93185L100.255 9.93201V9.95037H100.274ZM108.15 9.88148L108.164 9.89391L108.192 9.86259L108.15 9.86296L108.15 9.88148ZM107.278 10.8459L107.259 10.8441L107.253 10.9001L107.291 10.8584L107.278 10.8459ZM105.992 7.24074L105.982 7.25639V7.25639L105.992 7.24074ZM102.639 7.33259L102.649 7.34785L102.65 7.34778L102.639 7.33259ZM101.491 8.82519L101.508 8.83234V8.83234L101.491 8.82519ZM101.996 14.3133L101.982 14.3255L101.982 14.3256L101.996 14.3133ZM105.831 15.1859L105.836 15.2036L105.837 15.2033L105.831 15.1859ZM106.68 14.7267L106.692 14.7411L106.693 14.7407L106.68 14.7267ZM107.232 14.0378L107.215 14.0288L107.215 14.0291L107.232 14.0378ZM107.599 13.1881L107.603 13.1701L107.586 13.1662L107.581 13.1826L107.599 13.1881ZM109.78 13.6933L109.798 13.6977L109.803 13.6795L109.785 13.6753L109.78 13.6933ZM109.138 15.2089L109.122 15.1987L109.122 15.1989L109.138 15.2089ZM108.081 16.3341L108.092 16.3491L108.092 16.3489L108.081 16.3341ZM106.566 17.0459L106.561 17.0281L106.56 17.0282L106.566 17.0459ZM104.591 17.2985V17.28C103.643 17.28 102.804 17.1425 102.071 16.8678L102.065 16.8852L102.058 16.9025C102.796 17.179 103.64 17.317 104.591 17.317V17.2985ZM102.065 16.8852L102.072 16.868C101.339 16.578 100.721 16.1737 100.218 15.6553L100.205 15.6681L100.192 15.681C100.699 16.2036 101.321 16.6107 102.058 16.9024L102.065 16.8852ZM100.205 15.6681L100.218 15.6554C99.7151 15.1216 99.3337 14.4886 99.0742 13.756L99.0568 13.7622L99.0393 13.7684C99.3004 14.5055 99.6844 15.1431 100.191 15.6809L100.205 15.6681ZM99.0568 13.7622L99.0743 13.7562C98.8148 13.0083 98.6849 12.1684 98.6849 11.2363H98.6664H98.6479C98.6479 12.1718 98.7782 13.0159 99.0393 13.7683L99.0568 13.7622ZM98.6664 11.2363H98.6849C98.6849 10.3042 98.8148 9.44892 99.0743 8.6703L99.0568 8.66444L99.0392 8.65859C98.7782 9.44145 98.6479 10.3007 98.6479 11.2363H98.6664ZM99.0568 8.66444L99.0744 8.6702C99.334 7.87607 99.7004 7.18925 100.173 6.60948L100.159 6.59778L100.145 6.58607C99.6685 7.16976 99.3 7.86072 99.0392 8.65869L99.0568 8.66444ZM100.159 6.59778L100.173 6.60971C100.661 6.03012 101.256 5.58017 101.958 5.25981L101.95 5.24296L101.942 5.22612C101.236 5.54872 100.637 6.00198 100.145 6.58585L100.159 6.59778ZM101.95 5.24296L101.958 5.25987C102.674 4.9396 103.483 4.77926 104.384 4.77926V4.76074V4.74222C103.479 4.74222 102.665 4.90337 101.943 5.22606L101.95 5.24296ZM104.384 4.76074V4.77926C105.224 4.77926 105.972 4.9167 106.627 5.19116L106.635 5.17407L106.642 5.15699C105.981 4.88033 105.228 4.74222 104.384 4.74222V4.76074ZM106.635 5.17407L106.628 5.19121C107.298 5.46559 107.862 5.88469 108.319 6.4487L108.334 6.43704L108.348 6.42537C107.887 5.85654 107.318 5.43367 106.642 5.15693L106.635 5.17407ZM108.334 6.43704L108.32 6.44889C108.777 6.99757 109.12 7.69158 109.349 8.53154L109.367 8.52667L109.385 8.52179C109.155 7.6778 108.809 6.97873 108.348 6.42518L108.334 6.43704ZM109.367 8.52667L109.349 8.53162C109.578 9.35586 109.662 10.3259 109.601 11.4419L109.62 11.443L109.638 11.444C109.7 10.325 109.615 9.35081 109.385 8.52171L109.367 8.52667ZM109.62 11.443L109.62 11.4244L100.274 11.4933L100.274 11.5119L100.274 11.5304L109.62 11.4615L109.62 11.443ZM100.274 11.5119H100.292V9.95037H100.274H100.255V11.5119H100.274ZM100.274 9.95037L100.274 9.96889L108.15 9.9L108.15 9.88148L108.15 9.86296L100.274 9.93185L100.274 9.95037ZM108.15 9.88148L108.136 9.86906L107.264 10.8335L107.278 10.8459L107.291 10.8584L108.164 9.89391L108.15 9.88148ZM107.278 10.8459L107.296 10.8478C107.388 9.92745 107.311 9.16636 107.065 8.56556L107.048 8.57259L107.031 8.57962C107.274 9.1729 107.351 9.92737 107.259 10.8441L107.278 10.8459ZM107.048 8.57259L107.065 8.56556C106.819 7.96566 106.465 7.51838 106.001 7.2251L105.992 7.24074L105.982 7.25639C106.437 7.54484 106.787 7.98545 107.031 8.57962L107.048 8.57259ZM105.992 7.24074L106.001 7.2251C105.539 6.93217 105.007 6.78593 104.407 6.78593V6.80444V6.82296C105.001 6.82296 105.526 6.96758 105.982 7.25639L105.992 7.24074ZM104.407 6.80444V6.78593C103.73 6.78593 103.137 6.96293 102.628 7.3174L102.639 7.33259L102.65 7.34778C103.151 6.99806 103.737 6.82296 104.407 6.82296V6.80444ZM102.639 7.33259L102.629 7.31733C102.135 7.65651 101.75 8.15715 101.474 8.81804L101.491 8.82519L101.508 8.83234C101.782 8.17668 102.163 7.68226 102.649 7.34785L102.639 7.33259ZM101.491 8.82519L101.474 8.81804C101.197 9.47912 101.059 10.2701 101.059 11.1904H101.078H101.096C101.096 10.2736 101.234 9.48779 101.508 8.83234L101.491 8.82519ZM101.078 11.1904H101.059C101.059 12.5705 101.366 13.6166 101.982 14.3255L101.996 14.3133L102.01 14.3012C101.402 13.6016 101.096 12.5658 101.096 11.1904H101.078ZM101.996 14.3133L101.982 14.3256C102.599 15.0194 103.477 15.3652 104.614 15.3652V15.3467V15.3281C103.485 15.3281 102.618 14.9851 102.01 14.301L101.996 14.3133ZM104.614 15.3467V15.3652C105.09 15.3652 105.497 15.3115 105.836 15.2036L105.831 15.1859L105.825 15.1683C105.491 15.2747 105.087 15.3281 104.614 15.3281V15.3467ZM105.831 15.1859L105.837 15.2033C106.175 15.0803 106.461 14.9263 106.692 14.7411L106.68 14.7267L106.669 14.7122C106.441 14.8944 106.16 15.0466 105.825 15.1685L105.831 15.1859ZM106.68 14.7267L106.693 14.7407C106.924 14.5402 107.109 14.3088 107.248 14.0464L107.232 14.0378L107.215 14.0291C107.079 14.2873 106.896 14.5151 106.668 14.7127L106.68 14.7267ZM107.232 14.0378L107.248 14.0468C107.401 13.7702 107.524 13.4858 107.617 13.1937L107.599 13.1881L107.581 13.1826C107.49 13.4722 107.368 13.7543 107.215 14.0288L107.232 14.0378ZM107.599 13.1881L107.595 13.2062L109.776 13.7114L109.78 13.6933L109.785 13.6753L107.603 13.1701L107.599 13.1881ZM109.78 13.6933L109.762 13.689C109.625 14.2535 109.412 14.7567 109.122 15.1987L109.138 15.2089L109.153 15.219C109.445 14.7732 109.66 14.266 109.798 13.6977L109.78 13.6933ZM109.138 15.2089L109.122 15.1989C108.848 15.6256 108.497 15.999 108.07 16.3193L108.081 16.3341L108.092 16.3489C108.523 16.0262 108.876 15.6495 109.153 15.2189L109.138 15.2089ZM108.081 16.3341L108.07 16.319C107.644 16.6238 107.141 16.8602 106.561 17.0281L106.566 17.0459L106.571 17.0637C107.154 16.8948 107.661 16.6567 108.092 16.3491L108.081 16.3341ZM106.566 17.0459L106.56 17.0282C105.996 17.1959 105.34 17.28 104.591 17.28V17.2985V17.317C105.342 17.317 106.002 17.2327 106.571 17.0637L106.566 17.0459ZM55.5936 36L55.5886 36.0178L55.589 36.0179L55.5936 36ZM53.6418 35.0815L53.6302 35.096L53.6307 35.0963L53.6418 35.0815ZM52.4477 33.5659L52.4306 33.5732L52.4309 33.5737L52.4477 33.5659ZM52.0803 31.4533L52.0755 31.4354L52.062 31.4391L52.0618 31.453L52.0803 31.4533ZM54.3077 30.8563L54.3262 30.857L54.3272 30.8319L54.3029 30.8384L54.3077 30.8563ZM54.744 32.7622L54.7284 32.7722V32.7722L54.744 32.7622ZM56.1677 33.9104L56.1606 33.9275L56.1611 33.9277L56.1677 33.9104ZM60.4158 33.9793L60.4221 33.9967V33.9967L60.4158 33.9793ZM61.6558 33.1756L61.6416 33.1638L61.6415 33.1638L61.6558 33.1756ZM61.564 30.7874L61.5515 30.8011L61.5522 30.8017L61.564 30.7874ZM60.2092 30.0756L60.2035 30.0932L60.2039 30.0933L60.2092 30.0756ZM58.3033 29.5704L58.3072 29.5523L58.3071 29.5523L58.3033 29.5704ZM56.1677 29.0422L56.1627 29.06V29.06L56.1677 29.0422ZM54.2388 28.2615L54.2293 28.2774L54.2299 28.2777L54.2388 28.2615ZM52.861 26.9756L52.8455 26.9856L52.8457 26.9859L52.861 26.9756ZM54.9966 21.097L54.9893 21.08L54.9892 21.0801L54.9966 21.097ZM61.0818 21.097L61.0746 21.1141L61.0749 21.1143L61.0818 21.097ZM63.1714 22.6585L63.1565 22.6695L63.1567 22.6698L63.1714 22.6585ZM63.9751 25.1156L63.9798 25.1335L63.9939 25.1298L63.9936 25.1153L63.9751 25.1156ZM61.6788 25.7126H61.6603V25.7365L61.6835 25.7305L61.6788 25.7126ZM61.4033 24.3348L61.3862 24.342L61.3864 24.3426L61.4033 24.3348ZM60.6684 23.3474L60.6568 23.3618V23.3618L60.6684 23.3474ZM59.5203 22.7733L59.5148 22.791L59.5154 22.7912L59.5203 22.7733ZM56.2825 22.8652L56.289 22.8825L56.2895 22.8823L56.2825 22.8652ZM55.1344 23.6459L55.12 23.6342L55.12 23.6343L55.1344 23.6459ZM55.3181 26.103L55.3061 26.1172L55.3068 26.1176L55.3181 26.103ZM56.8795 26.8607L56.8741 26.8784L56.8745 26.8785L56.8795 26.8607ZM58.9462 27.3889L58.9421 27.4069L58.9424 27.407L58.9462 27.3889ZM60.8981 27.8941L60.8926 27.9118L60.8931 27.9119L60.8981 27.8941ZM62.6892 28.6519L62.6797 28.6677L62.6798 28.6678L62.6892 28.6519ZM63.9981 29.9148L63.9823 29.9245L63.9825 29.9249L63.9981 29.9148ZM63.7914 34.2319L63.7764 34.221L63.7762 34.2213L63.7914 34.2319ZM61.7247 35.7704L61.7314 35.7877L61.7316 35.7876L61.7247 35.7704ZM58.2573 36.2985V36.28C57.2635 36.28 56.3771 36.1806 55.5982 35.9821L55.5936 36L55.589 36.0179C56.3716 36.2174 57.2611 36.317 58.2573 36.317V36.2985ZM55.5936 36L55.5986 35.9822C54.835 35.7683 54.1865 35.4631 53.6528 35.0666L53.6418 35.0815L53.6307 35.0963C54.1687 35.496 54.8214 35.803 55.5886 36.0178L55.5936 36ZM53.6418 35.0815L53.6533 35.067C53.135 34.6554 52.7388 34.1525 52.4645 33.5582L52.4477 33.5659L52.4309 33.5737C52.7077 34.1734 53.1075 34.6809 53.6303 35.096L53.6418 35.0815ZM52.4477 33.5659L52.4647 33.5587C52.2057 32.9492 52.0835 32.2476 52.0988 31.4537L52.0803 31.4533L52.0618 31.453C52.0464 32.2511 52.1692 32.958 52.4307 33.5732L52.4477 33.5659ZM52.0803 31.4533L52.0851 31.4712L54.3125 30.8742L54.3077 30.8563L54.3029 30.8384L52.0755 31.4354L52.0803 31.4533ZM54.3077 30.8563L54.2892 30.8556C54.2585 31.6237 54.4044 32.263 54.7284 32.7722L54.744 32.7622L54.7596 32.7523C54.4407 32.2511 54.2957 31.6197 54.3262 30.857L54.3077 30.8563ZM54.744 32.7622L54.7284 32.7722C55.0522 33.281 55.5299 33.666 56.1606 33.9275L56.1677 33.9104L56.1748 33.8933C55.5502 33.6343 55.0788 33.2538 54.7596 32.7523L54.744 32.7622ZM56.1677 33.9104L56.1611 33.9277C56.8066 34.1736 57.5437 34.2963 58.3721 34.2963V34.2778V34.2593C57.5473 34.2593 56.8148 34.1371 56.1743 33.8931L56.1677 33.9104ZM58.3721 34.2778V34.2963C59.1849 34.2963 59.8684 34.1966 60.4221 33.9967L60.4158 33.9793L60.4096 33.9618C59.8611 34.1599 59.1821 34.2593 58.3721 34.2593V34.2778ZM60.4158 33.9793L60.4221 33.9967C60.9753 33.7969 61.3919 33.5274 61.6702 33.1873L61.6558 33.1756L61.6415 33.1638C61.3687 33.4973 60.9586 33.7636 60.4096 33.9618L60.4158 33.9793ZM61.6558 33.1756L61.6701 33.1874C61.9636 32.832 62.1107 32.4299 62.1107 31.9815H62.0921H62.0736C62.0736 32.421 61.9298 32.8149 61.6416 33.1638L61.6558 33.1756ZM62.0921 31.9815H62.1107C62.1107 31.4714 61.9326 31.0679 61.5758 30.7731L61.564 30.7874L61.5522 30.8017C61.8996 31.0886 62.0736 31.4812 62.0736 31.9815H62.0921ZM61.564 30.7874L61.5765 30.7737C61.2371 30.4652 60.7828 30.2268 60.2145 30.0578L60.2092 30.0756L60.2039 30.0933C60.7684 30.2611 61.2173 30.4973 61.5515 30.8011L61.564 30.7874ZM60.2092 30.0756L60.2149 30.0579C59.6478 29.874 59.0119 29.7055 58.3072 29.5523L58.3033 29.5704L58.2993 29.5885C59.003 29.7414 59.6377 29.9097 60.2035 30.0932L60.2092 30.0756ZM58.3033 29.5704L58.3071 29.5523C57.588 29.3993 56.8765 29.2233 56.1727 29.0244L56.1677 29.0422L56.1627 29.06C56.8673 29.2592 57.5795 29.4353 58.2994 29.5885L58.3033 29.5704ZM56.1677 29.0422L56.1727 29.0244C55.4698 28.8257 54.8281 28.566 54.2478 28.2453L54.2388 28.2615L54.2299 28.2777C54.8129 28.5999 55.4572 28.8607 56.1627 29.06L56.1677 29.0422ZM54.2388 28.2615L54.2483 28.2456C53.6841 27.9101 53.2269 27.4833 52.8764 26.9652L52.861 26.9756L52.8457 26.9859C53.1994 27.5088 53.6607 27.9393 54.2293 28.2774L54.2388 28.2615ZM52.861 26.9756L52.8766 26.9655C52.5422 26.4487 52.3744 25.7942 52.3744 25.0007H52.3558H52.3373C52.3373 25.7994 52.5063 26.4614 52.8455 26.9856L52.861 26.9756ZM52.3558 25.0007H52.3744C52.3744 24.0854 52.6031 23.3009 53.0599 22.6462L53.0447 22.6356L53.0295 22.625C52.5678 23.2868 52.3373 24.079 52.3373 25.0007H52.3558ZM53.0447 22.6356L53.0599 22.6462C53.517 21.9911 54.1647 21.4803 55.004 21.114L54.9966 21.097L54.9892 21.0801C54.1445 21.4486 53.491 21.9635 53.0295 22.625L53.0447 22.6356ZM54.9966 21.097L55.0039 21.1141C55.8584 20.7479 56.8661 20.5644 58.0277 20.5644V20.5459V20.5274C56.8623 20.5274 55.8494 20.7114 54.9893 21.08L54.9966 21.097ZM58.0277 20.5459V20.5644C59.1892 20.5644 60.2047 20.7478 61.0746 21.1141L61.0818 21.097L61.089 21.08C60.2136 20.7114 59.1931 20.5274 58.0277 20.5274V20.5459ZM61.0818 21.097L61.0749 21.1143C61.96 21.4652 62.6536 21.9837 63.1565 22.6695L63.1714 22.6585L63.1863 22.6476C62.6789 21.9555 61.9793 21.433 61.0886 21.0798L61.0818 21.097ZM63.1714 22.6585L63.1567 22.6698C63.6745 23.3398 63.9413 24.1548 63.9566 25.1158L63.9751 25.1156L63.9936 25.1153C63.9783 24.1474 63.7093 23.3244 63.1861 22.6472L63.1714 22.6585ZM63.9751 25.1156L63.9704 25.0976L61.6741 25.6947L61.6788 25.7126L61.6835 25.7305L63.9798 25.1335L63.9751 25.1156ZM61.6788 25.7126H61.6973C61.6973 25.1899 61.6051 24.7279 61.4201 24.3271L61.4033 24.3348L61.3864 24.3426C61.5688 24.7378 61.6603 25.1943 61.6603 25.7126H61.6788ZM61.4033 24.3348L61.4203 24.3276C61.2508 23.9269 61.004 23.5953 60.6801 23.333L60.6684 23.3474L60.6568 23.3618C60.9758 23.62 61.2189 23.9467 61.3862 24.342L61.4033 24.3348ZM60.6684 23.3474L60.6801 23.333C60.3564 23.071 59.9713 22.8786 59.5252 22.7555L59.5203 22.7733L59.5154 22.7912C59.9571 22.9131 60.3375 23.1033 60.6568 23.3618L60.6684 23.3474ZM59.5203 22.7733L59.5258 22.7556C59.0797 22.6172 58.5726 22.5481 58.0047 22.5481V22.5667V22.5852C58.5697 22.5852 59.073 22.6539 59.5148 22.791L59.5203 22.7733ZM58.0047 22.5667V22.5481C57.3446 22.5481 56.7681 22.6479 56.2755 22.848L56.2825 22.8652L56.2895 22.8823C56.7767 22.6844 57.3483 22.5852 58.0047 22.5852V22.5667ZM56.2825 22.8652L56.276 22.8478C55.7837 23.0325 55.398 23.2944 55.12 23.6342L55.1344 23.6459L55.1487 23.6577C55.4218 23.3239 55.8016 23.0653 56.289 22.8825L56.2825 22.8652ZM55.1344 23.6459L55.12 23.6343C54.8569 23.9593 54.7255 24.3462 54.7255 24.7941H54.744H54.7625C54.7625 24.354 54.8914 23.9755 55.1488 23.6576L55.1344 23.6459ZM54.744 24.7941H54.7255C54.7255 25.35 54.9188 25.7918 55.3062 26.1171L55.3181 26.103L55.33 26.0888C54.9519 25.7712 54.7625 25.3403 54.7625 24.7941H54.744ZM55.3181 26.103L55.3068 26.1176C55.707 26.4255 56.2297 26.679 56.8741 26.8784L56.8795 26.8607L56.885 26.8431C56.2435 26.6445 55.7252 26.3927 55.3294 26.0883L55.3181 26.103ZM56.8795 26.8607L56.8745 26.8785C57.5178 27.0624 58.207 27.2385 58.9421 27.4069L58.9462 27.3889L58.9504 27.3708C58.2158 27.2025 57.5272 27.0265 56.8846 26.8429L56.8795 26.8607ZM58.9462 27.3889L58.9424 27.407C59.6001 27.5447 60.2502 27.7129 60.8926 27.9118L60.8981 27.8941L60.9035 27.8764C60.26 27.6772 59.6088 27.5087 58.95 27.3708L58.9462 27.3889ZM60.8981 27.8941L60.8931 27.9119C61.5499 28.0952 62.1454 28.3472 62.6797 28.6677L62.6892 28.6519L62.6987 28.636C62.1614 28.3136 61.5628 28.0603 60.903 27.8762L60.8981 27.8941ZM62.6892 28.6519L62.6798 28.6678C63.2285 28.9879 63.6625 29.4067 63.9823 29.9245L63.9981 29.9148L64.0138 29.9051C63.6907 29.3819 63.2521 28.9588 62.6985 28.6359L62.6892 28.6519ZM63.9981 29.9148L63.9825 29.9249C64.3169 30.4416 64.4847 31.1037 64.4847 31.9126H64.5033H64.5218C64.5218 31.0987 64.3529 30.429 64.0136 29.9048L63.9981 29.9148ZM64.5033 31.9126H64.4847C64.4847 32.797 64.2485 33.5662 63.7764 34.221L63.7914 34.2319L63.8064 34.2427C64.2835 33.581 64.5218 32.804 64.5218 31.9126H64.5033ZM63.7914 34.2319L63.7762 34.2213C63.3195 34.8759 62.6338 35.3868 61.7179 35.7532L61.7247 35.7704L61.7316 35.7876C62.6527 35.4191 63.3448 34.9043 63.8066 34.2424L63.7914 34.2319ZM61.7247 35.7704L61.7181 35.7531C60.8024 36.1041 59.649 36.28 58.2573 36.28V36.2985V36.317C59.6518 36.317 60.81 36.1408 61.7314 35.7877L61.7247 35.7704ZM69.0413 35.5637L69.0503 35.5475V35.5475L69.0413 35.5637ZM66.9517 33.4281L66.9353 33.4368L66.9354 33.437L66.9517 33.4281ZM69.0872 24.4496L69.0787 24.4332L69.0786 24.4332L69.0872 24.4496ZM75.1035 24.4726L75.0948 24.4889L75.1035 24.4726ZM77.1932 26.5852L77.1769 26.594L77.177 26.5942L77.1932 26.5852ZM77.1932 33.543L77.177 33.5339L77.1769 33.534L77.1932 33.543ZM75.1035 35.6096L75.095 35.5932L75.1035 35.6096ZM75.0806 32.4178L75.0635 32.4107V32.4107L75.0806 32.4178ZM75.0576 27.8481L75.0405 27.8553L75.0406 27.8554L75.0576 27.8481ZM73.8635 26.3326L73.8529 26.3478L73.8532 26.3479L73.8635 26.3326ZM70.2583 26.2867L70.2682 26.3024L70.2683 26.3023L70.2583 26.2867ZM69.1332 27.6874L69.1502 27.6947L69.1503 27.6945L69.1332 27.6874ZM69.6613 33.1756L69.6468 33.1871V33.1871L69.6613 33.1756ZM72.0954 36.2985V36.28C70.9499 36.28 69.9351 36.0357 69.0503 35.5475L69.0413 35.5637L69.0324 35.5799C69.9233 36.0715 70.9445 36.317 72.0954 36.317V36.2985ZM69.0413 35.5637L69.0503 35.5475C68.1656 35.0594 67.4715 34.3502 66.968 33.4193L66.9517 33.4281L66.9354 33.437C67.4422 34.3738 68.1412 35.0882 69.0324 35.5799L69.0413 35.5637ZM66.9517 33.4281L66.9681 33.4195C66.4799 32.489 66.2354 31.344 66.2354 29.9837H66.2169H66.1983C66.1983 31.3483 66.4437 32.4996 66.9353 33.4368L66.9517 33.4281ZM66.2169 29.9837H66.2354C66.2354 28.5928 66.4952 27.4404 67.0137 26.5254L66.9976 26.5163L66.9815 26.5072C66.459 27.4292 66.1983 28.5884 66.1983 29.9837H66.2169ZM66.9976 26.5163L67.0137 26.5254C67.5326 25.6098 68.2266 24.9235 69.0959 24.466L69.0872 24.4496L69.0786 24.4332C68.2027 24.8943 67.5036 25.5858 66.9815 26.5072L66.9976 26.5163ZM69.0872 24.4496L69.0957 24.4661C69.9808 24.0083 70.9728 23.7793 72.0724 23.7793V23.7607V23.7422C70.9675 23.7422 69.9695 23.9724 69.0787 24.4332L69.0872 24.4496ZM72.0724 23.7607V23.7793C73.2026 23.7793 74.2099 24.016 75.0948 24.4889L75.1035 24.4726L75.1123 24.4563C74.2214 23.9801 73.2079 23.7422 72.0724 23.7422V23.7607ZM75.1035 24.4726L75.0948 24.4889C75.9793 24.9617 76.6733 25.6632 77.1769 26.594L77.1932 26.5852L77.2094 26.5764C76.7026 25.6395 76.0035 24.9326 75.1123 24.4563L75.1035 24.4726ZM77.1932 26.5852L77.177 26.5942C77.6955 27.5246 77.9554 28.6847 77.9554 30.0756H77.9739H77.9924C77.9924 28.6802 77.7318 27.5135 77.2093 26.5762L77.1932 26.5852ZM77.9739 30.0756H77.9554C77.9554 31.4511 77.6956 32.6036 77.177 33.5339L77.1932 33.543L77.2093 33.552C77.7317 32.6147 77.9924 31.4556 77.9924 30.0756H77.9739ZM77.1932 33.543L77.1769 33.534C76.6734 34.4495 75.9795 35.1357 75.095 35.5932L75.1035 35.6096L75.112 35.6261C76.0034 35.165 76.7025 34.4735 77.2094 33.5519L77.1932 33.543ZM75.1035 35.6096L75.095 35.5932C74.21 36.0509 73.2103 36.28 72.0954 36.28V36.2985V36.317C73.2155 36.317 74.2212 36.0869 75.112 35.6261L75.1035 35.6096ZM72.1872 34.3237V34.3422C72.8791 34.3422 73.4721 34.1808 73.9655 33.857L73.9554 33.8415L73.9452 33.826C73.4589 34.1452 72.8732 34.3052 72.1872 34.3052V34.3237ZM73.9554 33.8415L73.9655 33.857C74.459 33.5331 74.8362 33.0554 75.0977 32.4249L75.0806 32.4178L75.0635 32.4107C74.8044 33.0355 74.4315 33.5069 73.9452 33.826L73.9554 33.8415ZM75.0806 32.4178L75.0977 32.4249C75.3591 31.7944 75.4895 31.0418 75.4895 30.1674H75.4709H75.4524C75.4524 31.0382 75.3226 31.7858 75.0635 32.4107L75.0806 32.4178ZM75.4709 30.1674H75.4895C75.4895 29.2624 75.3514 28.4867 75.0746 27.8409L75.0576 27.8481L75.0406 27.8554C75.3149 28.4955 75.4524 29.266 75.4524 30.1674H75.4709ZM75.0576 27.8481L75.0747 27.841C74.7979 27.1799 74.3978 26.6716 73.8739 26.3173L73.8635 26.3326L73.8532 26.3479C74.3703 26.6977 74.7662 27.1999 75.0405 27.8553L75.0576 27.8481ZM73.8635 26.3326L73.8741 26.3174C73.3653 25.9627 72.7414 25.7859 72.0035 25.7859V25.8044V25.823C72.7353 25.823 73.3514 25.9982 73.8529 26.3478L73.8635 26.3326ZM72.0035 25.8044V25.7859C71.3421 25.7859 70.7569 25.9475 70.2484 26.271L70.2583 26.2867L70.2683 26.3023C70.7702 25.9829 71.3484 25.823 72.0035 25.823V25.8044ZM70.2583 26.2867L70.2485 26.271C69.7548 26.5795 69.3775 27.0497 69.1161 27.6803L69.1332 27.6874L69.1503 27.6945C69.4093 27.0698 69.7821 26.6062 70.2682 26.3024L70.2583 26.2867ZM69.1332 27.6874L69.1161 27.6802C68.8546 28.2954 68.7243 29.0482 68.7243 29.9378H68.7428H68.7613C68.7613 29.0516 68.8912 28.3041 69.1502 27.6947L69.1332 27.6874ZM68.7428 29.9378H68.7243C68.7243 31.3333 69.031 32.4173 69.6468 33.1871L69.6613 33.1756L69.6758 33.164C69.067 32.403 68.7613 31.3284 68.7613 29.9378H68.7428ZM69.6613 33.1756L69.6468 33.1871C70.2631 33.9574 71.1106 34.3422 72.1872 34.3422V34.3237V34.3052C71.1207 34.3052 70.2842 33.9246 69.6758 33.164L69.6613 33.1756ZM80.282 36H80.2635V36.0185H80.282V36ZM80.282 24.0593V24.0407H80.2635V24.0593H80.282ZM82.4406 24.0593L82.4591 24.0599L82.4598 24.0407H82.4406V24.0593ZM82.3028 27.7793L82.2843 27.7786L82.2836 27.7978H82.3028V27.7793ZM82.6931 27.7793V27.7978H82.7078L82.7112 27.7835L82.6931 27.7793ZM83.5428 25.5289L83.527 25.5192L83.5269 25.5193L83.5428 25.5289ZM84.9206 24.197L84.9121 24.1806L84.9119 24.1807L84.9206 24.197ZM89.9265 25.1844L89.9115 25.1953L89.9116 25.1955L89.9265 25.1844ZM90.9828 36V36.0185H91.0013V36H90.9828ZM88.4569 36H88.4383V36.0185H88.4569V36ZM87.8598 26.8607L87.8442 26.8707L87.8443 26.8708L87.8598 26.8607ZM84.3006 26.5852L84.313 26.5989L84.313 26.5989L84.3006 26.5852ZM82.762 30.5807L82.7435 30.5801V30.5807H82.762ZM82.762 36V36.0185H82.7806V36H82.762ZM80.282 36H80.3006V28.6519H80.282H80.2635V36H80.282ZM80.282 28.6519H80.3006V24.0593H80.282H80.2635V28.6519H80.282ZM80.282 24.0593V24.0778H82.4406V24.0593V24.0407H80.282V24.0593ZM82.4406 24.0593L82.422 24.0586L82.2843 27.7786L82.3028 27.7793L82.3213 27.7799L82.4591 24.0599L82.4406 24.0593ZM82.3028 27.7793V27.7978H82.6931V27.7793V27.7607H82.3028V27.7793ZM82.6931 27.7793L82.7112 27.7835C82.9252 26.8662 83.2078 26.118 83.5586 25.5385L83.5428 25.5289L83.5269 25.5193C83.1735 26.1032 82.8897 26.8553 82.6751 27.7751L82.6931 27.7793ZM83.5428 25.5289L83.5585 25.5386C83.9244 24.944 84.3814 24.5025 84.9292 24.2134L84.9206 24.197L84.9119 24.1807C84.3575 24.4733 83.8959 24.9197 83.527 25.5192L83.5428 25.5289ZM84.9206 24.197L84.929 24.2135C85.4924 23.9242 86.1477 23.7793 86.8954 23.7793V23.7607V23.7422C86.1428 23.7422 85.4816 23.8881 84.9121 24.1806L84.9206 24.197ZM86.8954 23.7607V23.7793C88.2222 23.7793 89.2266 24.2517 89.9115 25.1953L89.9265 25.1844L89.9415 25.1736C89.2486 24.2189 88.2322 23.7422 86.8954 23.7422V23.7607ZM89.9265 25.1844L89.9116 25.1955C90.6123 26.1399 90.9643 27.5819 90.9643 29.5244H90.9828H91.0013C91.0013 27.5786 90.649 26.1272 89.9414 25.1734L89.9265 25.1844ZM90.9828 29.5244H90.9643V36H90.9828H91.0013V29.5244H90.9828ZM90.9828 36V35.9815H88.4569V36V36.0185H90.9828V36ZM88.4569 36H88.4754V29.777H88.4569H88.4383V36H88.4569ZM88.4569 29.777H88.4754C88.4754 28.4441 88.2764 27.4676 87.8753 26.8506L87.8598 26.8607L87.8443 26.8708C88.2393 27.4786 88.4383 28.4462 88.4383 29.777H88.4569ZM87.8598 26.8607L87.8755 26.8508C87.4738 26.2174 86.8706 25.9007 86.0687 25.9007V25.9193V25.9378C86.859 25.9378 87.4498 26.2488 87.8442 26.8707L87.8598 26.8607ZM86.0687 25.9193V25.9007C85.3754 25.9007 84.7816 26.1243 84.2881 26.5715L84.3006 26.5852L84.313 26.5989C84.7993 26.1582 85.3842 25.9378 86.0687 25.9378V25.9193ZM84.3006 26.5852L84.2881 26.5714C83.811 27.0024 83.4421 27.5715 83.181 28.278L83.1983 28.2844L83.2157 28.2909C83.4751 27.589 83.841 27.0252 84.313 26.5989L84.3006 26.5852ZM83.1983 28.2844L83.181 28.278C82.92 28.9842 82.7742 29.7516 82.7435 30.5801L82.762 30.5807L82.7805 30.5814C82.8111 29.7565 82.9562 28.993 83.2157 28.2909L83.1983 28.2844ZM82.762 30.5807H82.7435V36H82.762H82.7806V30.5807H82.762ZM82.762 36V35.9815H80.282V36V36.0185H82.762V36ZM95.1712 39.7889L95.1668 39.8069L95.1669 39.8069L95.1712 39.7889ZM93.3801 38.8933L93.3934 38.8805V38.8805L93.3801 38.8933ZM93.6327 35.7015L93.6443 35.7159L93.6445 35.7157L93.6327 35.7015ZM96.1356 34.8289L96.1376 34.8473L96.1541 34.8455V34.8289H96.1356ZM96.1356 34.3696H96.1541V34.3508L96.1353 34.3511L96.1356 34.3696ZM94.2527 34.117L94.2446 34.1337L94.2454 34.1341L94.2527 34.117ZM94.2527 32.1193L94.2633 32.1344L94.2634 32.1343L94.2527 32.1193ZM96.3193 31.3156L96.3237 31.3336L96.3379 31.3301V31.3156H96.3193ZM96.3193 30.8793H96.3379V30.8613L96.3199 30.8608L96.3193 30.8793ZM94.1608 30.0067L94.1472 30.0192V30.0192L94.1608 30.0067ZM94.023 25.8504L94.008 25.8396L94.0079 25.8396L94.023 25.8504ZM95.883 24.4726L95.8899 24.4898L95.89 24.4897L95.883 24.4726ZM104.632 23.9674H104.65V23.9489H104.632V23.9674ZM104.632 25.9881L104.629 26.0065L104.65 26.0096V25.9881H104.632ZM100.935 25.437L100.938 25.4187L100.916 25.4156V25.437H100.935ZM100.935 25.8963H100.916V25.9117L100.932 25.9145L100.935 25.8963ZM103.002 26.7689L102.989 26.7827V26.7827L103.002 26.7689ZM103.093 30.1215L103.079 30.1098L103.079 30.1101L103.093 30.1215ZM101.394 31.2696L101.4 31.2871L101.401 31.287L101.394 31.2696ZM97.9956 31.637L97.9969 31.6186V31.6186L97.9956 31.637ZM96.9853 31.5222L96.9886 31.4983L96.9754 31.5065L96.9853 31.5222ZM96.0897 32.1652L96.0776 32.1512L96.0771 32.1516L96.0897 32.1652ZM96.0438 33.0607L96.0355 33.0773L96.036 33.0776L96.0438 33.0607ZM96.7786 33.2444L96.7767 33.2629V33.2629L96.7786 33.2444ZM101.716 33.3822L101.713 33.4006L101.714 33.4007L101.716 33.3822ZM104.333 34.6911L104.319 34.7022L104.319 34.7025L104.333 34.6911ZM104.081 38.5259L104.067 38.5134V38.5134L104.081 38.5259ZM101.899 39.697L101.895 39.6791L101.895 39.6792L101.899 39.697ZM100.866 37.86L100.863 37.8418L100.862 37.8419L100.866 37.86ZM102.175 37.3089L102.188 37.3224V37.3224L102.175 37.3089ZM102.313 35.4719L102.299 35.4839L102.299 35.4844L102.313 35.4719ZM101.624 35.0356L101.618 35.0531L101.619 35.0534L101.624 35.0356ZM100.82 34.8748L100.821 34.8563V34.8563L100.82 34.8748ZM97.3756 34.8519V34.8331L97.3725 34.8336L97.3756 34.8519ZM95.6764 35.5637L95.6895 35.5768L95.6898 35.5765L95.6764 35.5637ZM95.6075 37.5156L95.6189 37.5009L95.6183 37.5005L95.6075 37.5156ZM96.7556 37.9289L96.7584 37.9106L96.7579 37.9105L96.7556 37.9289ZM100.659 29.6163L100.671 29.6303L100.671 29.6303L100.659 29.6163ZM100.659 26.3785L100.646 26.3918L100.647 26.3921L100.659 26.3785ZM96.5719 26.3556L96.5595 26.3418L96.5593 26.342L96.5719 26.3556ZM96.2045 29.157L96.1889 29.167L96.1891 29.1673L96.2045 29.157ZM97.123 29.9148L97.1153 29.9316L97.1155 29.9317L97.123 29.9148ZM98.3401 40.0874V40.0689C97.0549 40.0689 96.0002 39.9694 95.1755 39.7709L95.1712 39.7889L95.1669 39.8069C95.9955 40.0064 97.0534 40.1059 98.3401 40.1059V40.0874ZM95.1712 39.7889L95.1756 39.7709C94.366 39.5723 93.7728 39.275 93.3934 38.8805L93.3801 38.8933L93.3667 38.9062C93.7528 39.3077 94.3536 39.6074 95.1668 39.8069L95.1712 39.7889ZM93.3801 38.8933L93.3934 38.8805C93.0142 38.4861 92.8245 38.0009 92.8245 37.4237H92.806H92.7875C92.7875 38.0099 92.9805 38.5045 93.3667 38.9062L93.3801 38.8933ZM92.806 37.4237H92.8245C92.8245 36.7251 93.0975 36.1564 93.6443 35.7159L93.6327 35.7015L93.6211 35.6871C93.0656 36.1345 92.7875 36.7139 92.7875 37.4237H92.806ZM93.6327 35.7015L93.6445 35.7157C94.1917 35.2598 95.0218 34.9696 96.1376 34.8473L96.1356 34.8289L96.1336 34.8105C95.0144 34.9331 94.1759 35.2247 93.6208 35.6873L93.6327 35.7015ZM96.1356 34.8289H96.1541V34.3696H96.1356H96.1171V34.8289H96.1356ZM96.1356 34.3696L96.1353 34.3511C95.3095 34.3664 94.685 34.2822 94.26 34.1L94.2527 34.117L94.2454 34.1341C94.6776 34.3193 95.3084 34.4035 96.136 34.3881L96.1356 34.3696ZM94.2527 34.117L94.2607 34.1004C94.0563 34.0019 93.9041 33.8776 93.803 33.7278C93.702 33.5781 93.6512 33.4019 93.6512 33.1985H93.6327H93.6141C93.6141 33.4084 93.6667 33.592 93.7723 33.7485C93.8779 33.9049 94.0357 34.0331 94.2446 34.1337L94.2527 34.117ZM93.6327 33.1985H93.6512C93.6512 32.777 93.8539 32.4225 94.2633 32.1344L94.2527 32.1193L94.242 32.1041C93.8248 32.3977 93.6141 32.7627 93.6141 33.1985H93.6327ZM94.2527 32.1193L94.2634 32.1343C94.6891 31.8303 95.3752 31.563 96.3237 31.3336L96.3193 31.3156L96.315 31.2976C95.3652 31.5273 94.6735 31.7959 94.2419 32.1042L94.2527 32.1193ZM96.3193 31.3156H96.3379V30.8793H96.3193H96.3008V31.3156H96.3193ZM96.3193 30.8793L96.3199 30.8608C95.3898 30.8303 94.6755 30.5407 94.1745 29.9942L94.1608 30.0067L94.1472 30.0192C94.6565 30.5748 95.3812 30.867 96.3187 30.8978L96.3193 30.8793ZM94.1608 30.0067L94.1745 29.9942C93.6729 29.447 93.4216 28.7475 93.4216 27.8941H93.403H93.3845C93.3845 28.7553 93.6384 29.4642 94.1472 30.0192L94.1608 30.0067ZM93.403 27.8941H93.4216C93.4216 27.1168 93.6272 26.4394 94.0381 25.8611L94.023 25.8504L94.0079 25.8396C93.5922 26.4248 93.3845 27.1099 93.3845 27.8941H93.403ZM94.023 25.8504L94.0381 25.8612C94.4643 25.2675 95.0812 24.8102 95.8899 24.4898L95.883 24.4726L95.8762 24.4554C95.0622 24.7779 94.4391 25.2391 94.008 25.8396L94.023 25.8504ZM95.883 24.4726L95.89 24.4897C96.7139 24.1541 97.7065 23.9859 98.8682 23.9859V23.9674V23.9489C97.7031 23.9489 96.7055 24.1175 95.8761 24.4554L95.883 24.4726ZM98.8682 23.9674V23.9859H104.632V23.9674V23.9489H98.8682V23.9674ZM104.632 23.9674H104.613V25.9881H104.632H104.65V23.9674H104.632ZM104.632 25.9881L104.635 25.9698L100.938 25.4187L100.935 25.437L100.932 25.4554L104.629 26.0065L104.632 25.9881ZM100.935 25.437H100.916V25.8963H100.935H100.953V25.437H100.935ZM100.935 25.8963L100.932 25.9145C101.848 26.0826 102.533 26.3725 102.989 26.7827L103.002 26.7689L103.014 26.7551C102.551 26.3386 101.859 26.0468 100.938 25.8781L100.935 25.8963ZM103.002 26.7689L102.989 26.7827C103.444 27.192 103.672 27.7454 103.672 28.4452H103.69H103.709C103.709 27.7365 103.478 27.1725 103.014 26.7551L103.002 26.7689ZM103.69 28.4452H103.672C103.672 29.0686 103.474 29.6232 103.079 30.1098L103.093 30.1215L103.108 30.1332C103.508 29.64 103.709 29.0771 103.709 28.4452H103.69ZM103.093 30.1215L103.079 30.1101C102.699 30.5966 102.136 30.9775 101.388 31.2522L101.394 31.2696L101.401 31.287C102.153 31.0106 102.723 30.6262 103.108 30.1329L103.093 30.1215ZM101.394 31.2696L101.388 31.2521C100.64 31.5115 99.7241 31.6415 98.6386 31.6415V31.66V31.6785C99.7269 31.6785 100.648 31.5482 101.4 31.2871L101.394 31.2696ZM98.6386 31.66V31.6415C98.44 31.6415 98.2261 31.6338 97.9969 31.6186L97.9956 31.637L97.9944 31.6555C98.2244 31.6708 98.4391 31.6785 98.6386 31.6785V31.66ZM97.9956 31.637L97.9969 31.6186C97.7679 31.6033 97.4316 31.5651 96.9878 31.5039L96.9853 31.5222L96.9827 31.5406C97.4268 31.6018 97.7641 31.6402 97.9944 31.6555L97.9956 31.637ZM96.9853 31.5222L96.9754 31.5065C96.6075 31.7365 96.3082 31.9513 96.0776 32.1512L96.0897 32.1652L96.1018 32.1792C96.3305 31.981 96.6282 31.7672 96.9951 31.5379L96.9853 31.5222ZM96.0897 32.1652L96.0771 32.1516C95.8621 32.3513 95.7497 32.532 95.7497 32.6933H95.7682H95.7867C95.7867 32.5485 95.8887 32.3771 96.1023 32.1788L96.0897 32.1652ZM95.7682 32.6933H95.7497C95.7497 32.8559 95.848 32.9836 96.0355 33.0773L96.0438 33.0607L96.0521 33.0442C95.8721 32.9542 95.7867 32.837 95.7867 32.6933H95.7682ZM96.0438 33.0607L96.036 33.0776C96.2374 33.1705 96.4844 33.2321 96.7767 33.2629L96.7786 33.2444L96.7805 33.226C96.4911 33.1956 96.2482 33.1347 96.0515 33.0439L96.0438 33.0607ZM96.7786 33.2444L96.7767 33.2629C97.0681 33.2935 97.3443 33.3089 97.6053 33.3089V33.2904V33.2719C97.3457 33.2719 97.0708 33.2566 96.7805 33.226L96.7786 33.2444ZM97.6053 33.2904V33.3089H100.545V33.2904V33.2719H97.6053V33.2904ZM100.545 33.2904V33.3089C100.85 33.3089 101.239 33.3394 101.713 33.4006L101.716 33.3822L101.718 33.3639C101.243 33.3026 100.852 33.2719 100.545 33.2719V33.2904ZM101.716 33.3822L101.714 33.4007C102.186 33.4464 102.659 33.5684 103.132 33.7667L103.139 33.7496L103.146 33.7326C102.67 33.5329 102.194 33.4099 101.717 33.3638L101.716 33.3822ZM103.139 33.7496L103.132 33.7667C103.604 33.9644 103.999 34.2761 104.319 34.7022L104.333 34.6911L104.348 34.68C104.025 34.2488 103.624 33.9329 103.146 33.7326L103.139 33.7496ZM104.333 34.6911L104.319 34.7025C104.637 35.1114 104.797 35.6886 104.797 36.4363H104.816H104.834C104.834 35.6838 104.673 35.0975 104.348 34.6797L104.333 34.6911ZM104.816 36.4363H104.797C104.797 37.2898 104.553 37.9816 104.067 38.5134L104.081 38.5259L104.094 38.5384C104.588 37.9986 104.834 37.2973 104.834 36.4363H104.816ZM104.081 38.5259L104.067 38.5134C103.58 39.0457 102.857 39.4347 101.895 39.6791L101.899 39.697L101.904 39.715C102.871 39.4695 103.601 39.0777 104.094 38.5384L104.081 38.5259ZM101.899 39.697L101.895 39.6792C100.932 39.9388 99.7474 40.0689 98.3401 40.0689V40.0874V40.1059C99.7495 40.1059 100.938 39.9757 101.904 39.7149L101.899 39.697ZM98.5008 38.0437V38.0622C99.4812 38.0622 100.271 38.001 100.87 37.8781L100.866 37.86L100.862 37.8419C100.267 37.964 99.48 38.0252 98.5008 38.0252V38.0437ZM100.866 37.86L100.869 37.8782C101.468 37.7708 101.908 37.5861 102.188 37.3224L102.175 37.3089L102.162 37.2954C101.89 37.5521 101.458 37.7349 100.863 37.8418L100.866 37.86ZM102.175 37.3089L102.188 37.3224C102.467 37.0584 102.607 36.7243 102.607 36.3215H102.588H102.57C102.57 36.7147 102.434 37.0389 102.162 37.2954L102.175 37.3089ZM102.588 36.3215H102.607C102.607 35.9511 102.514 35.6628 102.326 35.4593L102.313 35.4719L102.299 35.4844C102.479 35.6789 102.57 35.957 102.57 36.3215H102.588ZM102.313 35.4719L102.327 35.4598C102.141 35.2426 101.908 35.0952 101.629 35.0177L101.624 35.0356L101.619 35.0534C101.891 35.129 102.117 35.2724 102.299 35.4839L102.313 35.4719ZM101.624 35.0356L101.63 35.0181C101.368 34.9257 101.098 34.8717 100.821 34.8563L100.82 34.8748L100.819 34.8933C101.093 34.9085 101.359 34.9618 101.618 35.053L101.624 35.0356ZM100.82 34.8748L100.821 34.8563C100.545 34.841 100.308 34.8333 100.108 34.8333V34.8519V34.8704C100.307 34.8704 100.544 34.878 100.819 34.8933L100.82 34.8748ZM100.108 34.8519V34.8333H97.3756V34.8519V34.8704H100.108V34.8519ZM97.3756 34.8519L97.3725 34.8336C96.5599 34.9716 95.9886 35.2098 95.663 35.5509L95.6764 35.5637L95.6898 35.5765C96.0071 35.2441 96.5686 35.0077 97.3787 34.8701L97.3756 34.8519ZM95.6764 35.5637L95.6633 35.5506C95.3389 35.875 95.1756 36.2393 95.1756 36.643H95.1941H95.2127C95.2127 36.2506 95.3709 35.8953 95.6895 35.5768L95.6764 35.5637ZM95.1941 36.643H95.1756C95.1756 37.0308 95.3156 37.3276 95.5966 37.5306L95.6075 37.5156L95.6183 37.5005C95.3483 37.3055 95.2127 37.0206 95.2127 36.643H95.1941ZM95.6075 37.5156L95.5961 37.5302C95.8752 37.7472 96.2615 37.8858 96.7533 37.9473L96.7556 37.9289L96.7579 37.9105C96.2701 37.8495 95.8909 37.7125 95.6189 37.5009L95.6075 37.5156ZM96.7556 37.9289L96.7529 37.9472C97.2592 38.0239 97.8419 38.0622 98.5008 38.0622V38.0437V38.0252C97.8432 38.0252 97.2625 37.9869 96.7584 37.9106L96.7556 37.9289ZM98.6616 30.1904V30.2089C99.5517 30.2089 100.223 30.0171 100.671 29.6303L100.659 29.6163L100.647 29.6023C100.208 29.9809 99.5472 30.1719 98.6616 30.1719V30.1904ZM100.659 29.6163L100.671 29.6303C101.135 29.2285 101.367 28.7028 101.367 28.0548H101.348H101.33C101.33 28.6928 101.102 29.208 100.647 29.6023L100.659 29.6163ZM101.348 28.0548H101.367C101.367 27.3613 101.135 26.7975 100.672 26.365L100.659 26.3785L100.647 26.3921C101.102 26.8168 101.33 27.3705 101.33 28.0548H101.348ZM100.659 26.3785L100.672 26.3652C100.208 25.9167 99.5216 25.6941 98.6156 25.6941V25.7126V25.7311C99.516 25.7311 100.192 25.9524 100.646 26.3918L100.659 26.3785ZM98.6156 25.7126V25.6941C97.7249 25.6941 97.0386 25.9091 96.5595 26.3418L96.5719 26.3556L96.5843 26.3693C97.0544 25.9447 97.7305 25.7311 98.6156 25.7311V25.7126ZM96.5719 26.3556L96.5593 26.342C96.0961 26.7743 95.8645 27.3228 95.8645 27.9859H95.883H95.9016C95.9016 27.3325 96.1293 26.794 96.5846 26.3691L96.5719 26.3556ZM95.883 27.9859H95.8645C95.8645 28.433 95.9725 28.8269 96.1889 29.167L96.2045 29.157L96.2201 29.1471C96.0079 28.8136 95.9016 28.4268 95.9016 27.9859H95.883ZM96.2045 29.157L96.1891 29.1673C96.4056 29.492 96.7146 29.7467 97.1153 29.9316L97.123 29.9148L97.1308 29.898C96.7355 29.7155 96.4321 29.465 96.2199 29.1468L96.2045 29.157ZM97.123 29.9148L97.1155 29.9317C97.5319 30.1168 98.0475 30.2089 98.6616 30.2089V30.1904V30.1719C98.0509 30.1719 97.5408 30.0802 97.1306 29.8979L97.123 29.9148ZM109.176 36.0459L109.171 36.0638V36.0638L109.176 36.0459ZM107.523 35.3341L107.512 35.3491L107.512 35.3495L107.523 35.3341ZM106.489 34.1859L106.473 34.1949V34.1949L106.489 34.1859ZM106.053 32.7393L106.047 32.7217L106.033 32.7263L106.035 32.7409L106.053 32.7393ZM108.074 32.0733H108.092V32.0477L108.068 32.0557L108.074 32.0733ZM108.487 33.2674L108.473 33.2788V33.2788L108.487 33.2674ZM109.658 34.0941L109.652 34.1113L109.652 34.1115L109.658 34.0941ZM113.47 33.9563L113.48 33.9722V33.9722L113.47 33.9563ZM113.769 31.9356L113.756 31.9495L113.757 31.9499L113.769 31.9356ZM112.689 31.4074L112.684 31.4251L112.684 31.4252L112.689 31.4074ZM111.059 31.017L111.055 31.0351L111.055 31.0352L111.059 31.017ZM109.36 30.6037L109.354 30.6214L109.355 30.6216L109.36 30.6037ZM107.821 29.9607L107.812 29.9769L107.812 29.977L107.821 29.9607ZM106.696 28.9504L106.68 28.9604L106.681 28.961L106.696 28.9504ZM106.857 25.46L106.872 25.471L106.872 25.4708L106.857 25.46ZM108.51 24.22L108.517 24.2372L108.517 24.2371L108.51 24.22ZM113.654 24.197L113.647 24.2142L113.647 24.2142L113.654 24.197ZM116.157 27.2511L116.162 27.2689L116.177 27.2644L116.175 27.2487L116.157 27.2511ZM114.044 27.8711L114.026 27.8723L114.027 27.8954L114.049 27.8889L114.044 27.8711ZM113.608 26.677L113.593 26.6883L113.594 26.6887L113.608 26.677ZM112.598 25.9652L112.591 25.9824L112.591 25.9826L112.598 25.9652ZM109.268 26.1259L109.258 26.1102L109.258 26.1103L109.268 26.1259ZM109.015 28.1467L109.003 28.1606L109.004 28.1613L109.015 28.1467ZM110.118 28.6748L110.112 28.6926L110.113 28.6927L110.118 28.6748ZM111.725 29.0422L111.721 29.0604L111.721 29.0604L111.725 29.0422ZM113.493 29.4556L113.498 29.4377V29.4377L113.493 29.4556ZM115.009 30.0756L114.999 30.0915L115 30.0919L115.009 30.0756ZM116.088 31.0859L116.072 31.0955L116.073 31.0962L116.088 31.0859ZM115.858 34.6681L115.844 34.6568L115.844 34.6568L115.858 34.6681ZM114.09 35.8852L114.096 35.9026V35.9026L114.09 35.8852ZM111.381 36.2985V36.28C110.555 36.28 109.822 36.1959 109.181 36.028L109.176 36.0459L109.171 36.0638C109.816 36.2327 110.553 36.317 111.381 36.317V36.2985ZM109.176 36.0459L109.181 36.028C108.539 35.86 107.99 35.6235 107.533 35.3187L107.523 35.3341L107.512 35.3495C107.974 35.657 108.527 35.895 109.171 36.0638L109.176 36.0459ZM107.523 35.3341L107.534 35.3191C107.092 34.9991 106.749 34.6184 106.506 34.177L106.489 34.1859L106.473 34.1949C106.72 34.6414 107.066 35.0261 107.512 35.3491L107.523 35.3341ZM106.489 34.1859L106.506 34.177C106.262 33.7354 106.117 33.2556 106.072 32.7376L106.053 32.7393L106.035 32.7409C106.081 33.2639 106.227 33.7486 106.473 34.1949L106.489 34.1859ZM106.053 32.7393L106.059 32.7568L108.08 32.0909L108.074 32.0733L108.068 32.0557L106.047 32.7217L106.053 32.7393ZM108.074 32.0733H108.055C108.055 32.5215 108.195 32.9235 108.473 33.2788L108.487 33.2674L108.502 33.256C108.229 32.9071 108.092 32.5131 108.092 32.0733H108.074ZM108.487 33.2674L108.473 33.2788C108.751 33.634 109.144 33.9113 109.652 34.1113L109.658 34.0941L109.665 34.0768C109.162 33.8788 108.775 33.605 108.502 33.256L108.487 33.2674ZM109.658 34.0941L109.652 34.1115C110.175 34.2961 110.797 34.3881 111.518 34.3881V34.3696V34.3511C110.8 34.3511 110.182 34.2594 109.664 34.0766L109.658 34.0941ZM111.518 34.3696V34.3881C112.362 34.3881 113.016 34.2502 113.48 33.9722L113.47 33.9563L113.461 33.9404C113.005 34.2135 112.359 34.3511 111.518 34.3511V34.3696ZM113.47 33.9563L113.48 33.9722C113.944 33.6936 114.178 33.3052 114.178 32.8081H114.159H114.141C114.141 33.2908 113.915 33.6678 113.461 33.9404L113.47 33.9563ZM114.159 32.8081H114.178C114.178 32.4358 114.045 32.1394 113.78 31.9213L113.769 31.9356L113.757 31.9499C114.012 32.1603 114.141 32.4457 114.141 32.8081H114.159ZM113.769 31.9356L113.781 31.9216C113.533 31.7048 113.171 31.5278 112.695 31.3896L112.689 31.4074L112.684 31.4252C113.157 31.5626 113.514 31.7376 113.756 31.9495L113.769 31.9356ZM112.689 31.4074L112.695 31.3897C112.235 31.2517 111.691 31.1214 111.063 30.9989L111.059 31.017L111.055 31.0352C111.683 31.1576 112.226 31.2876 112.684 31.4251L112.689 31.4074ZM111.059 31.017L111.063 30.9989C110.497 30.8765 109.931 30.7388 109.365 30.5858L109.36 30.6037L109.355 30.6216C109.922 30.7747 110.488 30.9126 111.055 31.0351L111.059 31.017ZM109.36 30.6037L109.365 30.586C108.815 30.4179 108.304 30.2041 107.83 29.9445L107.821 29.9607L107.812 29.977C108.288 30.2379 108.802 30.4527 109.354 30.6214L109.36 30.6037ZM107.821 29.9607L107.83 29.9446C107.373 29.6857 107 29.3507 106.711 28.9397L106.696 28.9504L106.681 28.961C106.973 29.3767 107.351 29.7153 107.812 29.9769L107.821 29.9607ZM106.696 28.9504L106.712 28.9404C106.438 28.5154 106.301 27.9833 106.301 27.343H106.283H106.264C106.264 27.9886 106.403 28.5281 106.681 28.9604L106.696 28.9504ZM106.283 27.343H106.301C106.301 26.6115 106.492 25.9879 106.872 25.471L106.857 25.46L106.842 25.449C106.457 25.9731 106.264 26.6048 106.264 27.343H106.283ZM106.857 25.46L106.872 25.4708C107.252 24.9383 107.8 24.527 108.517 24.2372L108.51 24.22L108.503 24.2028C107.781 24.4948 107.227 24.9101 106.842 25.4492L106.857 25.46ZM108.51 24.22L108.517 24.2371C109.249 23.9321 110.119 23.7793 111.128 23.7793V23.7607V23.7422C110.116 23.7422 109.241 23.8956 108.503 24.2029L108.51 24.22ZM111.128 23.7607V23.7793C112.106 23.7793 112.945 23.9244 113.647 24.2142L113.654 24.197L113.661 24.1799C112.954 23.8879 112.109 23.7422 111.128 23.7422V23.7607ZM113.654 24.197L113.647 24.2142C114.364 24.5041 114.935 24.9081 115.362 25.4258L115.376 25.4141L115.39 25.4023C114.959 24.8791 114.383 24.4717 113.661 24.1799L113.654 24.197ZM115.376 25.4141L115.362 25.4258C115.788 25.9435 116.047 26.5526 116.138 27.2535L116.157 27.2511L116.175 27.2487C116.083 26.5413 115.821 25.9256 115.39 25.4023L115.376 25.4141ZM116.157 27.2511L116.152 27.2333L114.039 27.8533L114.044 27.8711L114.049 27.8889L116.162 27.2689L116.157 27.2511ZM114.044 27.8711L114.063 27.8699C114.032 27.3921 113.885 26.9903 113.622 26.6654L113.608 26.677L113.594 26.6887C113.851 27.0068 113.995 27.401 114.026 27.8723L114.044 27.8711ZM113.608 26.677L113.623 26.6658C113.375 26.3411 113.035 26.1019 112.604 25.9477L112.598 25.9652L112.591 25.9826C113.017 26.1347 113.351 26.37 113.593 26.6883L113.608 26.677ZM112.598 25.9652L112.604 25.9479C112.173 25.7785 111.665 25.6941 111.082 25.6941V25.7126V25.7311C111.662 25.7311 112.165 25.8151 112.591 25.9824L112.598 25.9652ZM111.082 25.7126V25.6941C110.315 25.6941 109.706 25.8322 109.258 26.1102L109.268 26.1259L109.278 26.1417C109.718 25.8686 110.319 25.7311 111.082 25.7311V25.7126ZM109.268 26.1259L109.258 26.1103C108.824 26.389 108.606 26.7697 108.606 27.2511H108.625H108.643C108.643 26.7834 108.854 26.414 109.278 26.1415L109.268 26.1259ZM108.625 27.2511H108.606C108.606 27.6235 108.739 27.9272 109.003 28.1606L109.015 28.1467L109.028 28.1328C108.772 27.9069 108.643 27.6136 108.643 27.2511H108.625ZM109.015 28.1467L109.004 28.1613C109.282 28.3774 109.652 28.5543 110.112 28.6926L110.118 28.6748L110.123 28.6571C109.665 28.5197 109.3 28.3445 109.027 28.132L109.015 28.1467ZM110.118 28.6748L110.113 28.6927C110.588 28.8153 111.124 28.9378 111.721 29.0604L111.725 29.0422L111.729 29.0241C111.132 28.9017 110.596 28.7793 110.122 28.6569L110.118 28.6748ZM111.725 29.0422L111.721 29.0604C112.333 29.1828 112.922 29.3205 113.488 29.4734L113.493 29.4556L113.498 29.4377C112.931 29.2845 112.341 29.1466 111.729 29.0241L111.725 29.0422ZM113.493 29.4556L113.488 29.4734C114.053 29.6261 114.557 29.8322 114.999 30.0915L115.009 30.0756L115.018 30.0596C114.572 29.7984 114.066 29.5911 113.498 29.4377L113.493 29.4556ZM115.009 30.0756L115 30.0919C115.456 30.3353 115.814 30.6698 116.072 31.0955L116.088 31.0859L116.104 31.0763C115.842 30.6447 115.479 30.3057 115.017 30.0592L115.009 30.0756ZM116.088 31.0859L116.073 31.0962C116.346 31.5057 116.483 32.03 116.483 32.6704H116.501H116.52C116.52 32.0248 116.381 31.4928 116.103 31.0757L116.088 31.0859ZM116.501 32.6704H116.483C116.483 33.4475 116.27 34.1093 115.844 34.6568L115.858 34.6681L115.873 34.6795C116.304 34.1248 116.52 33.4547 116.52 32.6704H116.501ZM115.858 34.6681L115.844 34.6568C115.433 35.1893 114.847 35.5932 114.084 35.8678L114.09 35.8852L114.096 35.9026C114.865 35.6261 115.457 35.2186 115.873 34.6795L115.858 34.6681ZM114.09 35.8852L114.084 35.8678C113.321 36.1424 112.42 36.28 111.381 36.28V36.2985V36.317C112.423 36.317 113.329 36.1791 114.096 35.9026L114.09 35.8852Z" fill="#111111" mask="url(#path-2-outside-1_3200_2323)"/>
</svg>
